<mxfile host="Electron" modified="2024-02-22T20:45:23.185Z" agent="Mozilla/5.0 (Windows NT 10.0; Win64; x64) AppleWebKit/537.36 (KHTML, like Gecko) draw.io/23.1.5 Chrome/120.0.6099.109 Electron/28.1.0 Safari/537.36" etag="JK93tsTblcNYM0kbgron" version="23.1.5" type="device">
  <diagram name="Страница — 1" id="iQcE-Loh1t21vnpTi6JW">
    <mxGraphModel dx="1744" dy="2345" grid="1" gridSize="10" guides="1" tooltips="1" connect="1" arrows="1" fold="1" page="1" pageScale="1" pageWidth="827" pageHeight="1169" math="0" shadow="0">
      <root>
        <mxCell id="0" />
        <mxCell id="1" parent="0" />
        <mxCell id="0Y9DeedcCKoHoYVFYHTG-2" value="" style="shape=image;verticalLabelPosition=bottom;labelBackgroundColor=default;verticalAlign=top;aspect=fixed;imageAspect=0;image=data:image/png,iVBORw0KGgoAAAANSUhEUgAAAOEAAADhCAMAAAAJbSJIAAABOFBMVEX///8AAACZ5vxVTlb+0qRDP0P/vYac6v9i2/tGaXLl4eVnmqn2qWwSEROb6f/4+PiPj49EQEQaJyuGyNyE4vxVv9sRJStBPENbiZb/16hyrLzt7e0dLDAzTVRrobCf7v+S2/DX0NYHDAtwcHBeXl40MTSebEVgkZ4hISGjo6NOSE/Ll2v8rW93s8Q4ODiampoqIxvKp4MjNDnS0tKDg4O+vr7FxcVJSUknJCjsomhLMyHc3NwYFhjlvpRoaGgzMzOkiGr+yplDQ0NUVFQvKzCysrLatI1qWEUbFhHLi1nuxZpgQiqDbVUsQkhXSDg7MCa1lnVKPTCQd12KXz3tr3xxTTI5KBnBj2apdEonGxGtgFt5UzZQeYQRGhw+Xmesjm+GZUnblmCQakpElKg4fpEiS1dKpr4sY3HH62fJAAATzUlEQVR4nO2deXvaOhaHay6UkgQD8XQgkMVhuSEEyMISEkjIBAjZyNa0TdqstzNzv/83GNtaLMuyMWBj6DO/5/7RS4zQ6yPpHB3J8ocPE61KkTuuuF0JB1Uvc7I2Q25XxCElOscKIBdcnwrERL1UrVZL9XrC4vWdFIcU7Dhbt9GVqGyWU63dYrG420oflsOb65W6uVkS66kGpypbHVNNh1Op3KpxWmWbu+lUeb3KtmeoU241tF9oWrS8G0qkspyBGtnmcTq1WZkh7DlTKbeajG+03CPoo44RHm1VWQ3958kk/EfYbRK2Qil9nQdRMuvLwH82S27DsJQ4HIkvmM1EIr42tGJqAl0GCRjM1trtTKbdrmUbSTYQpUY76ov4JMFhKjtpsU2iXk1hlFo0msv9oSiXi0pq18w5k7VoRLpWBoxEYfdMTdB4Wl8vp9K7TcTQiEI6QrlcJBJtZ4MG1oso38gpNsTtdFKcYmi91dQMijU9n8opmTSTkVpuUFGj1s7kcur1gNAHvUd5MoyoGz3bhnz9BYwYyUAj1t2Gk+2na3K1EQCRESOwTbg/yajr3V/DuIkOQAidYtFtwuquHjAyEiAYTSXBEWlmggCD0piRiTIG0eGMCH3iuquA9WMVTx7uR4YjCWEzdTf+xhYMZuyBUwSbaQSW7SZg2YL7G4EQjqYuDjV1BJixk0+ST9MRXYxN0w4BIkLYETddA6zCwGqUAIYtGLj5QPll1whTtvj3/oRptwBLcCCN2g5IEe66RbjuxDCqJQRRTcolwFDZoWGGIARDjVvzJ9hIRw1CTQl9mWB217XpUyXo0EBKEkYyLmbbOs41UpXQl3EvixEKg3jUgZEUeXyXCWHW0AFnqCH0uUcI502j5SsMlFMBc+71w1J2LIRp9xJRJadi0j/IgSbqYjKxNIahNOLLuLgQXHWOEDfSTC3oog0rCmDSCWeBpvhKzJZ2DdGAUM7Xj0oIG2kEBE2utdMO0+HnakkuOeJsI6dNtZXdStOwCdvg05HMiBopzCC4lS6FixUUIcr/cdkRzIhMCFPebjlENiGxwNYelpEyoWtLpEzCKEcoOWSOmDKha6lEFmGO0yqYGWJ2jJwhNKF7URuLkN4EpaxlDGpI6Crg+mjSvWUZBiHaBHOraavZ9kBBQQ6Ga7BHp91bWtMTRmHH2TrZvtYasmEdMqddxA+6uLKmI0TbQ7htr/f8iN5VEqxZg4TjaBt+zbVcMIMwgraQ3J17vd4F79E1RytZi/ZbX4QWRIBZN3cpUISoiXJXJwteWQvnd1enOkipW2aiuZwRKNgshAFdXJKhCVEIyXHX2wBQYXy91BsSdMxaJhr16VaM4W4oPCQfugmIcvoSoTSbwKHM1o2X0IJ3+6jLMCTizMrL/hIrXB3PRST51MJaru4VqlfLsG9pNnFpABXGg+3XKyNG2HCDwUajhqSWtutiLrhUTu8WWZuAt716SZAnr11zSJZa7gFWd412OLMAoc5PLrcGIyy6lSg13h/bPV8wJvQuSDq5616fGvZLnQ5dmfom9LGnouTtkdcMEFOe39xddq+ut6yAurFXP3HMrMpp9+6gLx+B6T25Obq7lEhvzUl3x47I2qO+ddu9uzFtoIac5yfb2zevR0d3bz8vLva/Peppx77Nu4N91cWXC2C9o+2T8/7t0wxUQv14f3+/sbHx16mmbEmNMSfa8Cjz9ex9709gwe2FofFUfQTaeFTK/HPv/ewr/KXD8bbTCnQTf+7l83OYcHRAmnAun4c3cNx79TfBr37Zm5PkJKGkvS/gx8YafMNG+u0sb0q4cH5w3pdJuob4IoMwf/Zt/M20DjZffFVMaEi4cHC5dXtkznh+dLt1SfgXBuHcHuiKY92JUWqCRpo3JTxXYtA7U8Q7+ZIr9RIWYR4007E++WSJcOFVGfKvTfrnAsjjnL7iSyaM8Kc54R3wk6aEwO/doUv+xST8OX5CS/3QNkI3+mEiRY6lD/YTfgeED+RYOt5lC7gZ8cucSnh6YyPhj1OVcA76w/EmTGFM8+1MuceA5IgmPDIYY0lCMBk+MiBU2gg04ZhjmgTc133xnkeE3CVNCAbK7oEhoNd70NUOt4jwjUOE+XcYfI85Lv2wDtNEX9/z+TPQabo6W71KFro1SWjId+FWsvIr/n8I+BGMLY9n+fw7jLzHntVPtMAPc/sP+fd95V9Xetd+crN9YgYoX7J9o16CTHgP7Lb/PvewD39n/AnFKlqPOEWTOIZrtxaLq1fhoRR0PalkNBVOupCNCnNYEJYeagYXIvxLU64sVx7H1+UxTMeUQQDvL+iiXcrql+kzEGiPOCzhD6rcrFsPkoTWqXzb0Yg2/KhtpEjHLp5PUyprkt63JyMZETfSfbLQbNnV8yISpc0i2UxtMSHZSIubJbefUQ/N1DvlNDTlbf+khXUTZtPlTn3G7YebgUKhBLTka38QqyYsJkKTQQeFHiEd3ojYhLAk9x7EYysB26k+OB3UhDAOzU6UAWXBDCpnPFc6P4Dx2YKXkWREgBuwHFe3JjAVgka8Nlh6Or+57N5tHyir3XfdyxuKEbdREJFytYkzIdoLLU0T2Ra8kWPore7l3WVXnvWe3jAB0cTQzUeaDYXW24jUIKEDepPClSaIxeMonEtM4pFJ+NEZdoL0hF673yInjjjFBttodiKPvVJPLmMFb6Y2xIAoXJvUUwTRw7LMadSNdlmX7Ie6SZNre/L7qo5SG6zNGDddtaFudVmAaJRpTcBZQkaqNtGAqkeU9150r26vb6+0q/0Y8Cf8bnNSTrxiCh8iyED0LizIGxK2T87J5XCdBSe2E0Kh0Ebqi0zPv0At9ussOIHBDCWcvelamQ7rMzOTFnDrpW60MVs4pACRH5xUV69VQs3BvfbZPgQB79VJ/TQASohlnOe8Mm2pyIC4hbr5EOVASoTVVK7xLjBkwO/44mR4SgDlc47V4OVym5nb/xcE3HhTL12fGkBpuKmo9b6+PNFvB8N839QLK1PRB7FKTYKxSzEivp8E32SeomumOoHInV7deBeoVdDv+2Qs3pzgWNRAaJUY6+r14Pwc8N3f/6AnU+49pz20dISKKd/e/nr7uc/YDfybEJpoegkfdUuBlC4ep5xw//3BjPHiAW4CmGLC/Nze2U8Dvp9ne3P534Bwbm5v72Ffh7f/sCdvi/s9CCWOfP79y8W3x1NZj98uvrxLn4C//CaEADKf33t/f99T/oU/nnrCjx/nNMrPUf//GxB+pCF/E0KYO92H09x+hO4dGDiUQqXNFHxTDCKURTRQFRoSNlqpcGVK7FgKp49r+AHX5Nv9RwMpfHuqr0xmi63yJK6qEQpVy+TeE+j3NkwIz/R+sliuTuJUOJRIVFLMl1VI+mFgxvzeg8E3gqlKIjE5nIl6qVNmP28JxW6p+XejaE7RcblTsvqCLyfpSpX1lCmdImZL/a5voTrK1HrFxT1RiWonnDo2el1M8TC8rj4K/ahrqfc/HvFf05vhQ59BOcnjVNjo5V6OqrRZThcZb6ACdNKtr67OzKxuqhX9qjXjxlf11oSrq6vVTmfzMMMqTP5ys1XeHGumKhFuNY2GFUnl1foMVEXdu/jtO9lC1Sxbo7OKVC2zigMKNlvjSxin+rywKVuZwVolHtp/w4BEGrhVxYCrHYMH4JGSYznsmkz2EndYPj0oh1rZcVVFnNlUq/0IOuO9asBsWOVbrSBnWvNlao0g8z46nzZO6BuScgILOHMFwRyuEoidFr40KQ0499/VVFurI1kZC5m74QNHm8gvSdJhOr14U6dOipBftkKc4ZVDY0+ZIJxZVRejuLeNv9T/KaMboQCiexfMwHPaIpFopl3LUpTOHmpWahE/JZvOR52cgw+iWycRZ9bVBLhqwCx1Dfo8o54761NsmdG+28vJo07q6rtyGhn2SU+oK7YrmupX9NnTdEd7BboJbR8lCVKiVIN5B2daCRxWB41Pl0NdsVXSAJTo/lte1fx9FbWOmvxGNhpSoWzj1urYe59wdGZ2nCXuiqkZrTrkUk2zQ/0VLY0HQdE5BqTPhyOMY2cA8SBjfuhzDjWnsBZQ+7qrXS0iesQoSNw7nTEjEWdPxkLP4/U9ETkKWxM5klT0p/UcEj11HYY++pN6tZAY0Yln9UqoE/Y/VBY7fsRQYUdjZfR3/LYvRtlaRoxYtH1AxXtILJxLjh1/ehXwNTm2moBxFQ207FOHtX0SlW37c8+dpFkl6DoRo81qmeyAyXY0Qzrw43JVHWWMXj1AIkbQSZFJm7e/oZeqWXz/AT5EOBzWTCCV+5PTxNfHYTzFMj4xkkREc7ZjW70ifIOF9VPJUWwTJIMRfHty5MQSX2JWNomI/GLYTq+I3jlm/fUH+nlQgySI6CfP5mWTiGjOaacR4VgfHOCcXOqsugY9TEYpxkaf8lTECDpd00aniEw4yOnjmpbYYBwGnctoruh384jhBrsM+4wIB7vgAIDEOaaGB0ETjBbeUUO8ywO9tNO2KX8CVmPAlx9Ax580OToYH9VtpXWoiPiQVLt8YthaT9FJOUC2bX6Qdw5cZKU40i3CG2PTM+yh4lAmlORrWzhwPte2ej603og2TaPg8XqDDKQOSWdEmw7iSw1rQttFtNO2jWMNTF1MgAk1L2EDgY0tCQ3YSB1519HAiiDBOcaIzTRUr0qCjbQdHVWaRpAbrowMFvT6KbmK9eEGnGo41SpKgl45OLLIwDTTGLKQJP4HdGFyFVup8ODPSpXSRtPW4ZXEVoz2v3hANdMDTvpNFoFGUPuPHJDRstxIGsT9h/SvgbdFAQFqx5Hi05a7Y6LVv7ShVFjhFXlizpRvdWNVyJkmys3HPFC8+OLMT1h8vLaDJ69LsVkbFfeoEpftKvXXr1///g+qcNaSe8QP877EBQ/vt1EEoX3l/uPTp0+f//s3rLOlpTf0oOuTKHWYKdAnWZ//DWttwYjoHOuAOBV8Hs8/FMRP0IoWEsV1MC/pCf7+hU+GAOHnnlLvRv9mCl9I+bTidsUt65PGiP1DG9ANn5enxoSomf56ttYRQyDHPl+Ykl7owYSf/6nUfLOfS4T5+3lhWgn75vr/TziBspGQByEAKxDglf8Y4unPeVJ0GTqJovZj+hreTkLeIwpCfHa5IAii7peE5bjIAhSFgiBqPyBFlsMLS5KTEsiLCz068hBm10gtC/YR8qKwvAQjo+dAXNAyzkoj9SJr+I0p0REB+EROBeaXSfpnTnsxLyhOPED+Dkfpedk2QiGmmbX21ohbyxeUvy3p4jx/XLk4pn5CTQzn437qWm4Nhxr+ZeWDHXzn+MIzTSjFXrw9hPEluugX9QpYlcU4HSWsgGlgD6OL81QpT+q1CB6Hizxd7MoTp9ey3w5C/yxdM0kB+mbP6wnBfVlUCenNlAzCJfSJnpCVGrCFcEXX/BXZQTiLv6JWH4XEOkJe0LfSJcEGQr/ABLSD8Im4FhOicnSEUk3oOyRPgUYm5MVFXF5gtlCYDexobvUQhIsxIIGYwBBNcAn8uJ7Q4/cLhUIczJNe4oWCsMLbMJbyqH/vxMQVOW+wIj715nvEsD4w4dIKENnXyU72pHyBQSgHDH4RlBoQ/SBkGJUQeiXJgAVUI54X4gXCIQ5B6NGJJJS9nAEhjAw4IhQYlXBlDVqQdOi8XzPU2k0oe7nxEYoB8KNr+kqNQKhLvlGuQA5kxkSIGumSyWRjYMIdEF3GyY5IObtlflyE/jjwQTGPsYb2FmScR7tzkR8XIfgZbtYkMzUAoZaCC6jfQIQIdIc3CAYdInyeNclMDU9ItH1EiJc0YuMlTDpEKOoIBRFOYuYL4yIEXWfNEcKYvh8KPJxGcS+x8RDGwbTiiTmFH5hQO9I8MUYaAa8uPi+OhRCVt1gwNuLAhD2YxBAZ3kKQIibN6qLjHt/zpL/fHl4TVA7h8fWJKMKGfJycJTlO6J+FPzdLRKKFpWBPN8e3J2qTi/WTvtFxQl5ECYw1EUSjvCeO6+IMoWYV3PlWurKMhocXJTMoCjAWf0H1xIQrVLTZLy4lq04SevwFPCcdA6HHE8C/tvS0tvYEZ1NcjyJ8DoDlesLHGcalQMvssdSjSZyMgZAX2dtfAhQh1HMMO5Z+3iL5xPD48BOc3BuHDf2MDBCn74dIQTU5NkQmCpbK4+TQOAilQhlWVJfBKUJ1HgIJ5wfJJmJHjEKbsRB6/OITVTdynZ8mxBGePiO8qL2SCNtoQrwAsEOvFsCBFkdZ9uS8eX/hRa3dcy8mEjcW3VUEj6sEM/Wz6qVU5pXMFEKbiWqpMKdGx4sra/LdnsdBll1rT36+EAss9XZ2etKAKmgdmr8QkP4A9RInB8je/A4xnPBirLeoammZ/JWettmCpSeup/OyHk+st7O0jP/PvvVDfsUjFAoFQVjx6/BF+S9AIknvF5YLmiU0jxDHKmhuFC88STdPY7BC7ClWYEUHQoHoJLauAfO8n17XRH9Bu7DoZU/6bpD7vahLRYFatON5kWcG/JpSp2mVe7htZtNEOJz+T0gTTu2Oof9a3DGEdn2ZZQ8nTAPu+vpQAo43MD02BIDWd+7VszBWmpate6iRgtA523/3JTo84WVaNpgCws/Wd9DiXdABcSq6ohbQ0ouG6uiUivlZW/exOyOwm+bXP2GdD2csEH4gTpHrvQQmXH///fd/eri+WYvHnxJv3J4uJa2+K4pxJtt0yPob6RLTacVBzlUMdbL9C5ww1TqDPUlaD9NJo8lWMjz4M8+JSqpocoTnBClYTJkclP0/pP25ixXytysAAAAASUVORK5CYII=;" vertex="1" parent="1">
          <mxGeometry x="780" y="-350" width="145" height="145" as="geometry" />
        </mxCell>
        <mxCell id="0Y9DeedcCKoHoYVFYHTG-53" style="edgeStyle=orthogonalEdgeStyle;rounded=0;orthogonalLoop=1;jettySize=auto;html=1;exitX=0.75;exitY=1;exitDx=0;exitDy=0;entryX=0.5;entryY=0;entryDx=0;entryDy=0;shape=link;" edge="1" parent="1" source="0Y9DeedcCKoHoYVFYHTG-4" target="0Y9DeedcCKoHoYVFYHTG-28">
          <mxGeometry relative="1" as="geometry" />
        </mxCell>
        <mxCell id="0Y9DeedcCKoHoYVFYHTG-54" style="edgeStyle=orthogonalEdgeStyle;rounded=0;orthogonalLoop=1;jettySize=auto;html=1;exitX=0.25;exitY=1;exitDx=0;exitDy=0;entryX=0.5;entryY=0;entryDx=0;entryDy=0;shape=link;" edge="1" parent="1" source="0Y9DeedcCKoHoYVFYHTG-4" target="0Y9DeedcCKoHoYVFYHTG-10">
          <mxGeometry relative="1" as="geometry" />
        </mxCell>
        <mxCell id="0Y9DeedcCKoHoYVFYHTG-4" value="" style="rounded=1;whiteSpace=wrap;html=1;" vertex="1" parent="1">
          <mxGeometry x="240" y="-80" width="1140" height="110" as="geometry" />
        </mxCell>
        <mxCell id="0Y9DeedcCKoHoYVFYHTG-5" value="&lt;font style=&quot;font-size: 36px;&quot;&gt;API GATEWAY&lt;/font&gt;" style="text;html=1;align=center;verticalAlign=middle;whiteSpace=wrap;rounded=0;rotation=0;" vertex="1" parent="1">
          <mxGeometry x="617.5" y="-70" width="297" height="90" as="geometry" />
        </mxCell>
        <mxCell id="0Y9DeedcCKoHoYVFYHTG-6" value="" style="shape=image;verticalLabelPosition=bottom;labelBackgroundColor=default;verticalAlign=top;aspect=fixed;imageAspect=0;image=data:image/svg+xml,PHN2ZyB4bWxuczp4bGluaz0iaHR0cDovL3d3dy53My5vcmcvMTk5OS94bGluayIgeG1sbnM9Imh0dHA6Ly93d3cudzMub3JnLzIwMDAvc3ZnIiB4bWw6c3BhY2U9InByZXNlcnZlIiBzdHlsZT0iZW5hYmxlLWJhY2tncm91bmQ6bmV3IDAgMCAxNTcuOCAxNDEuNjsiIHZpZXdCb3g9IjAgMCAxNTcuOCAxNDEuNiIgeT0iMHB4IiB4PSIwcHgiIGlkPSJMYXllcl8xIiB2ZXJzaW9uPSIxLjEiPiYjeGE7PHN0eWxlIHR5cGU9InRleHQvY3NzIj4mI3hhOwkuc3Qwe2ZpbGw6IzZEQjMzRjt9JiN4YTsJLnN0MXtmaWxsOiNGRkZGRkY7fSYjeGE7PC9zdHlsZT4mI3hhOzxwYXRoIGQ9Ik0xNTMuNCw2Mi42bC0zMC4yLTUyLjNjLTIuNi00LjUtOS4xLTguMy0xNC4zLTguM0g0OC41Yy01LjIsMC0xMS43LDMuNy0xNC4zLDguM0w0LDYyLjYmIzEwOyYjOTtjLTIuNiw0LjUtMi42LDEyLDAsMTYuNWwzMC4yLDUyLjNjMi42LDQuNSw5LjEsOC4zLDE0LjMsOC4zaDYwLjRjNS4yLDAsMTEuNy0zLjcsMTQuMy04LjNsMzAuMi01Mi4zJiMxMDsmIzk7QzE1Ni4xLDc0LjUsMTU2LjEsNjcuMSwxNTMuNCw2Mi42eiIgY2xhc3M9InN0MCIvPiYjeGE7PGc+JiN4YTsJPGNpcmNsZSByPSI2LjEiIGN5PSIxMTUuMiIgY3g9IjM2LjciIGNsYXNzPSJzdDEiLz4mI3hhOzwvZz4mI3hhOzxnPiYjeGE7CTxwYXRoIGQ9Ik0xMzksOTcuNEMxMjEuMywxMjEsODMuNSwxMTMsNTkuMywxMTQuMmMwLDAtNC4zLDAuMi04LjYsMC45YzAsMCwxLjYtMC43LDMuNy0xLjRjMTctNS45LDI1LTcuMSwzNS40LTEyLjQmIzEwOyYjOTsmIzk7YzE5LjQtOS45LDM4LjctMzEuNiw0Mi43LTU0LjFjLTcuNCwyMS42LTI5LjksNDAuMy01MC4zLDQ3LjhjLTE0LDUuMi0zOS4zLDEwLjItMzkuMywxMC4ybC0xLTAuNUMyNC41LDk2LjQsMjQsNTksNTUuMyw0NyYjMTA7JiM5OyYjOTtDNjksNDEuNyw4Mi4yLDQ0LjYsOTcsNDEuMWMxNS44LTMuOCwzNC4xLTE1LjYsNDEuNi0zMS4xQzE0Ni45LDM0LjgsMTU2LjksNzMuNSwxMzksOTcuNHoiIGNsYXNzPSJzdDEiLz4mI3hhOwk8cGF0aCBkPSJNMTM4LjYsMTBjOC4zLDI0LjgsMTguNCw2My41LDAuNCw4Ny40Yy0xMS4xLDE0LjgtMzAuMSwxNy4yLTQ4LjcsMTcuMmMtOC44LDAtMTcuNS0wLjUtMjUuMi0wLjUmIzEwOyYjOTsmIzk7Yy0yLDAtMy45LDAtNS43LDAuMWMwLDAtNC4zLDAuMi04LjYsMC45YzAsMCwxLjYtMC43LDMuNy0xLjRjMTctNS45LDI1LTcuMSwzNS40LTEyLjRjMTkuNC05LjksMzguNy0zMS42LDQyLjctNTQuMSYjMTA7JiM5OyYjOTtjLTcuNCwyMS42LTI5LjksNDAuMy01MC4zLDQ3LjhjLTE0LDUuMi0zOS4zLDEwLjItMzkuMywxMC4ybDAsMGwtMS0wLjVDMjQuNSw5Ni40LDI0LDU5LDU1LjMsNDdDNjksNDEuNyw4Mi4yLDQ0LjYsOTcsNDEuMSYjMTA7JiM5OyYjOTtDMTEyLjgsMzcuNCwxMzEuMSwyNS41LDEzOC42LDEwIE0xMzkuMSwyLjFsLTMuMiw2LjZjLTcuNSwxNS42LTI1LjgsMjYuMi0zOS42LDI5LjVDOTAuMSwzOS43LDg0LDQwLDc4LjIsNDAuMyYjMTA7JiM5OyYjOTtjLTcuNywwLjQtMTUuNywwLjgtMjMuOSwzLjlDMzUsNTEuNiwyNy42LDY3LjgsMjcuMSw4MC41Yy0wLjUsMTIuMSw0LjcsMjIuNiwxMy4yLDI2LjljMC41LDAuMywxLjYsMC45LDIuNSwwLjloMS4zbDAuMi0wLjImIzEwOyYjOTsmIzk7YzUuOC0xLjIsMjYuNS01LjYsMzguOS0xMC4xYzguNi0zLjIsMTguMy04LjYsMjcuMS0xNS44Yy02LjUsNi45LTE0LjEsMTIuNy0yMS44LDE2LjZjLTYuMywzLjItMTEuNyw0LjktMTkuMiw3LjImIzEwOyYjOTsmIzk7Yy00LjQsMS4zLTkuNSwyLjktMTUuNyw1Yy0yLjIsMC43LTMuOCwxLjUtMy45LDEuNWwtMi4yLDQuNWwzLjksMS4yYzQuMS0wLjcsOC4yLTAuOSw4LjMtMC45YzEuNy0wLjEsMy41LTAuMSw1LjUtMC4xJiMxMDsmIzk7JiM5O2MzLjcsMCw3LjYsMC4xLDExLjcsMC4zYzQuNCwwLjEsOC45LDAuMywxMy41LDAuM2MxOC41LDAsMzktMi4yLDUxLjEtMTguNGMxNC4xLTE4LjgsMTQuMi00OC4zLDAuMS05MC4yTDEzOS4xLDIuMUwxMzkuMSwyLjF6IiBjbGFzcz0ic3QwIi8+JiN4YTs8L2c+JiN4YTs8L3N2Zz4=;rotation=0;" vertex="1" parent="1">
          <mxGeometry x="938.73" y="-75" width="111.27" height="100" as="geometry" />
        </mxCell>
        <mxCell id="0Y9DeedcCKoHoYVFYHTG-40" style="edgeStyle=orthogonalEdgeStyle;rounded=0;orthogonalLoop=1;jettySize=auto;html=1;exitX=1;exitY=0.5;exitDx=0;exitDy=0;shape=link;" edge="1" parent="1" source="0Y9DeedcCKoHoYVFYHTG-10">
          <mxGeometry relative="1" as="geometry">
            <mxPoint x="520" y="280" as="targetPoint" />
          </mxGeometry>
        </mxCell>
        <mxCell id="0Y9DeedcCKoHoYVFYHTG-10" value="" style="ellipse;whiteSpace=wrap;html=1;aspect=fixed;" vertex="1" parent="1">
          <mxGeometry x="240" y="240" width="190" height="190" as="geometry" />
        </mxCell>
        <mxCell id="0Y9DeedcCKoHoYVFYHTG-11" value="" style="shape=image;verticalLabelPosition=bottom;labelBackgroundColor=default;verticalAlign=top;aspect=fixed;imageAspect=0;image=data:image/png,iVBORw0KGgoAAAANSUhEUgAAAQUAAADBCAMAAADxRlW1AAAAyVBMVEX////sGzBlcX/+9/jxanZUYnNhbnxzfYrsGS7sByG+w8nsFCvrDCb709X+8O/yZXHzeX73p6z6w8nzgYvO0tbzcn/6vcHvMEH97O7wTl3j5eeWnqeKk573oKdbaHjt7vD2mZpqdoOprrXV2Nvw8fJ9h5P4r67uOkWMlZ/84OLrABz71dj5s7nDyM3zg4383+DvQFCkq7PqABHsIjf0jJPwVGPvXWr4ycv3oKDyb3P1jZDuLD3vSVr95eL4qKXtQU3rAADyaHdCU2aoxhsdAAAPFElEQVR4nO2cDVfiOhPHW2FLSgsIKC+iKAIqiILL213R693n+3+op4VkZtKkBQTdhZP/ueee3ZKmk1+TyWSSrmUZGRkZGRkZGRkZGRkZGRkZGRkZGRkZGRkZfY9SQptcTyVpo0Kblltn3npj1brifykW0ksVzmtSyWGB/zArYi29NL+oUaGc53cmFArLpXl9vcLv+ELnw1WhkrgyGyRAyIlHklK9c2HGrCiXrszEUwpzjqX8012q37+Riv7zs7/64ecvxDMXFzXqj3m5f/vxhcJyP3u8gUmV9bl9V6Kyn+kECgNeqv9zBtdqM94y9+fokRau3Yvn9m3OOvXs2yu5aann/Ouz1XX/NI/MPc+Ok3fPKdyx+EJhOcbLlVwWX8jmFIqMF3LPEyhUuF3MLeDFosdvZUzqDAPRMuaXeZNTZWjt/XxPFBIKheW8z1Bg21N4vBd20CZYqVPxXI9VxDWgwNyrXSiwr6Ig2rc1hdQvaO44h5fnH9w85k97GgoF6h8Pn4KV63NDvD4OidQNNNiDq4SCP6ZD4ggopGxoQx1ecO/NF+0dDVUKQRXUifw1fuHzFKyyKzqDCy+4Iq6xfhl5EQp+nTiR9RSYLJ9QENdsTWkNBabIZ/uggOa6v8S1NJLB+ZNQCOqoYA3rKHiBfJTnuVVBIfgbv+YhB148+J8bpcDkqlal9kEhX4BZQgQzQ5/bFLxzLEgp2KSPrKHAxpPiVUQDPvnW8FLaFl66OsGrKZkC894m0bquirU9ULAGwl7P56N9AvNGnwSjEgV/hA1OpMC8Khk8CdZVuRXEPYGgL/iv8ZXtRiEnQgbmF5bPqH2I7ukthlhOouDZOCTWUUhe3QjrNqNwE1/DbhQwMvYWpWV1KwiBx/InpAUSBebikPhWCvGV7UbBGtjQGcKH5NMup+BVaVggUbD9N/Cbx0GhNxWdwa8HgeKc28OYm6ajUKbAPHAZx0HBmvSFHwhGe2oCjZWXCxEK7qsw6EgoPPpiOeanrd4H9IxRj5aSKQQLSzEkjoSCNYN22DmojPUnUqEIBRwSx0JhABEzq49sEaF4Ut5FoeCLlM6xUBiOxSjAiJ65M7lQhAKudY6FQupZXbR5fiVSKEKBicDyWChYFREykA4/fZfLKBT82cqk5HXEAVHozXxbViSrZmkoeOOV4/jOvvBPfA27U8AFlJAcN4aKUggqWk0i30eB+eWadkNmTxTm95EX7Z4qO1BRCra/Sj+uozAfPnLl5vNczKJws77AFuky6rRM39QeKFiFvjwBjJUNHpWCt8rIr8svjN5GXPeLcbUSrXcbCrbn9qnoqN0HhSuZgltXt+wUCsy7Wk9hmR9ayQ8TRTHbZxtSkJJtnrSHsg8K7zb1j8x9VkpoKKxi7G2yr569G4VIZfumYJXJk5i/6CkFaPaVx1aen9uWAtsnhb33BatkYwJUWxGhMB57nMLkyCjUZtjhPU/jw5CCN6rzxcZyGjwmCtYV9gW3/q7+jhTc80Hd5Z0hGBLFP0Zh/37BKi0g/8iKmt8JhedUeTWlMP90Swq7ekcyRXxJXyhVgYJ2UqcUrAF/pP+RXzsicKrcw0xJd2Rcd9/xAjnKEAQ66/qCVav7/N1WNtibssd2+N9SO1Fgi7c66m1a2jcF0a6lJQXVEpmC9dzn7yb9vi52LN/QbSlNzZtT8F/j27cXCnfEA8E+cAyFcmAY37Tw3+Z3vmiAdh2xOIhdGd5G0hVgtSiXkCjk7/mQWDy/et9I4SvzC8GDfOrTQ6cXlUwBYk1WrXoJI+KQck2WdS6tppjGlct+IYw1eTMB38FTyN3Lyab+TCkSofA+dTkxwHfoGTfrJhKd+R/KcipCIXXj2hEdel8YTiN5Rzk4XSpCwaqMo9HhoVMY+JEWBVVF/WOUwruSsT1wCvlCP9q7k7KvPAWj5iEPm0LOi77WYJaIz8RzCsqQOHAK5zSvx//kpiPWKBRSo0gPOmwKPeapFDxWkkspFAJ4x0ThRrxTxgoT0c1Z/1QupVIoRQ72HzSFHiwhPLsE6wnmL2RzVAr5quxODprCAEaBP3uHNANjrjwkVArWRJ4l/g4KQSvmw2GvV6vV8uqnUHEUamlftDs89jmEF+z+XkehJG91x576TKXytVovNy8FqlTuropqW/ZIgdnjQItFtfpROD9/vrqrVHJwWxyFEh70+8iRxkYO+ukowNn5eAo2G98Ubyan6UJ9lW3yPN9dqA3dIwVI8cFZafcD6oyhQD/+eA6fUUH/eLOGQupZPvAVexocT4J7HvPgTPwXUUDxPC0cP4+l0FuIm1c7TeAsWSSK1lCwKgvaGeKyrzxlDLOw920UhGH36yjAyQU4AC+uMH4iOIFCbUZDhq2/lflrKOC3MnBOKQdDQnqojoK8ljhcCpU+NFkUTU2Ff/TfSJZBS0E6EHWwFFIF9I1wZgjJuGSW0FJI0cBp6++mKIWFzz3Zm4YCfL37mkABPz+KfoW0jgK+S78KhzzzYxE5uSSK1lKw0mRIrKMAG/46CmPRUA2FYfp8pXTMSZhQV+5qv2o1Ey1no+UD6YdaegrkoKNbxiacgn/00SQ9hTnph/p4gXwMtjITv7Mmqg0CVULNNa+7JpQQhz5OfhfOn29ef719jO6ri/HYhq+4+2PYfQ4psAiFRzj6LR1kEml5Rj8Z0lPIk7kyQiGcG1exQmBHYIs/XlRHb9NCOq2JHfeg1am3VD6MU3u94eNjpTj5nU7Ppm/3BTBssOoszCMUbvADuhl5Pz1cUhXwnzfQUrBI4EQpzPt9P/wIbTGaTn+fvk4mk6vKMPFdfqHIYuIxPZ1OPxa214cv899tV3gR+ZBnEb+cAv8YQyE8A7Ps7p7X/4UUhuevxWJxMCjlgnXNn2m7Xvmgm+RKg0ERPqiuBC+Mh9xyaJ/D76xvxLUYCsORG/b6oKOx6j+kuX9V0xP1Xrk7ndY/xp77X1n6IS9ycCxcbK8U2aETSk3st8Lv9F1u2MsfTMOjCj1KsOgdRDZhin3+/Yw3hn954NkXPV9CltKc/jkS1eqreTeYK8XXhKnyckL2xqNRND19tMpdlev3LBzw97ybpMrjUfpmUHrs9Tb6WvY4lA98aaV4/gZD4v1wHN7elcrHnMExMjIyMjIyMjIyMjIyMjLaStnmj0RlRMH/8QvNJ6WOa/Gb0xaXHnR1NTPd23ZHuf3iJNmEkwtRsisuvUTruMXil+oTrLYjTIihcJIopysK/uBXWmcqhSb/LQP2NhxtbY7TzDSiIC4y2sJwE9Z6yQs6t7GtcBoaCNYt/J798xRWJFqNC+n23Sk8tUQNTvda08jrS/j9QQfp+yks2yWNqp0pnJ1AI1s6CNYTPkBj/h+icOJIzmVXCm0nuSdYnQd8gKO4lD9GIXhnpJYdKbS7AOFSHmqIiVTX0pX5MxQCg/Gt7UbhAiFoGxg1pqnzj4SCo9POFKTayMPQGEpBZ0IyBYSA87SsTvOEyGklUmifabUbBaebvQU9dE8QDuBFCs2s3gRw6yqFa4SQiYFg3cpdTdcZkEJMHTtSkJzRRRZf+w8oixS0vo1IoYB+Lx5CpytTIPxBX02hIRdtAwZ8JUghZlyDFAovAOEkDgK2EGCoRb+ZAk7dzoO49HkK4H2cpjYMCAXdxXmIs+n7KUAYhx3z0xRexHOdlj4wDnXWEpZci7vVwfPdFMjsIa58lgKangABBo1zZkFnUIp/O4XbfVHInqguRtW16ApBWHnWxD/L+nYK4NBg3v4chSeIAtRXS3TbxEIdcb/iRZBC51rV/imgs7pUKbQ1NsRQOMNQKLrMlgS+IDQtq/gkhcLDpaIGsWFPFGCqxEgCKDhd1YQu9WRIoQ1r6VYiBNFjVna0kXccBV3sun8KDXUwYwStMUHqvDi/YCQUGy3JdzwlmpW0mtoHhchCFmcIDBQTV1NaCpKRlwkRJ0yTPHHYFndFFl5fTaFBhnqbBNDkbexGISZjIJsBHa9L/Ov3UTjJkDF+0tTmfHakEEYCMYKaW2JBlhV+Qu5BX02BjnVaNXmBO1PIxI2JrDIuO1CDlPT7cgr6mumr+CwFBK1LvodNhq6AXkAEbfI9SKGpqvVFFJpS8IYUNCb8iKXQ6iIP/WwJ0+RlG3zTGcxHdG5JzrIQXgkUOttRcBw5FZ+cZaG8KAXn5RqTC/rMclfjnLotcQ+dLDeOoGH9psarFxCfb0Kh2XqSO/D2WZaw7EPH6og3E2DQjIkLDC91zqlJbtmYQjc66aCeVMebQEG5f/t1hMhOnOHfNQmkhzW+iTjojSlgjkLBDovXB5WCw8c3WKQmij9BQRiBC1TVNaxJbQe+HxuyMQV4YEaxVcT0hC5ETZfc3WCWtBul+Ik1pdhn6yCXVjSSvk1kEAp75cYUYCWrUG9rXIYSQWPCUYn1dsg7Wu3YHcprfXBBRPYsN6ZwjXfLxmIynCxs1GULyQxF9v53oUDTDA9SWfwhVjizbEyBdD6Jeqeh6+sqBZI078qt3YmC1YDWyn4bzFVjELVXbkwBwtFwsOP03H7QOijNEvYa35q8rt1hP8KiO3Qn1DXA3mQm244K013igUjhKatVR/M4p3WZDd/b9VOjhaOPNkK3kM/iW9Pv3Du3ehOSd2vP0DWQuJwsahWY5IEKBU34Gkawagi+vL8ZngQiE2DENG06gyyxaN8nWRa9CdDT9Tv3pJNCk6HjRZ1QKDKIFQp6kbEa3eqSJa/stBRIc+mRknUTe3MNBRoeiaKwaFLm5VAi+QJVb0GBZjxVCHIor09tkYcRT7YzhWs8y8JPgnVisilc+PPl9hSsJyfOXicSGMck+LArkhByZwpSJN2RWtXUr7lhEPF3txUF6ynGYCc6/GIodIgnQ7e7MwUSJy5nP7I3qYWAwQ+fLLejYLUvm6rJDp06EymQc1ZNaMkeKGAws9yta8O4j0tQg32r9UBWf4QF9CMSyXSyGZlDeIQxq/S7hkikRyh0Gk1Y4goLAwqJohT4FXXphM0IxtqLeIjWN4Zq/5Aqf8okS10Cds4eWi2+ZA/QZxqauch6Ebcri4ZLqFrMExfdNSYAhYa4ovq8bAvrvYY7dabJVWViQa1Vp53NvjQajZdsNnFPxMjIyMjIyMjIyMjIyMjIyMjIyMjIyMjIyMjIyMjIyMjIyMjIyMjos/o/1LYWrdTrJVYAAAAASUVORK5CYII=;" vertex="1" parent="1">
          <mxGeometry x="272.12" y="288.5" width="125.77" height="93" as="geometry" />
        </mxCell>
        <mxCell id="0Y9DeedcCKoHoYVFYHTG-42" style="edgeStyle=orthogonalEdgeStyle;rounded=0;orthogonalLoop=1;jettySize=auto;html=1;exitX=0.5;exitY=0;exitDx=0;exitDy=0;shape=link;" edge="1" parent="1" source="0Y9DeedcCKoHoYVFYHTG-12">
          <mxGeometry relative="1" as="geometry">
            <mxPoint x="580.3333333333335" y="280" as="targetPoint" />
          </mxGeometry>
        </mxCell>
        <mxCell id="0Y9DeedcCKoHoYVFYHTG-12" value="" style="rounded=1;whiteSpace=wrap;html=1;" vertex="1" parent="1">
          <mxGeometry x="520" y="320" width="120" height="120" as="geometry" />
        </mxCell>
        <mxCell id="0Y9DeedcCKoHoYVFYHTG-18" value="&lt;font style=&quot;font-size: 24px;&quot;&gt;Service&lt;/font&gt;" style="text;html=1;align=center;verticalAlign=middle;whiteSpace=wrap;rounded=0;" vertex="1" parent="1">
          <mxGeometry x="550" y="330" width="60" height="30" as="geometry" />
        </mxCell>
        <mxCell id="0Y9DeedcCKoHoYVFYHTG-21" value="" style="shape=image;verticalLabelPosition=bottom;labelBackgroundColor=default;verticalAlign=top;aspect=fixed;imageAspect=0;image=data:image/png,iVBORw0KGgoAAAANSUhEUgAAAOEAAADhCAMAAAAJbSJIAAAAflBMVEX///9tsz5rsjv7/fqo0JB+vFZnsTVqsjlmsDJkry5jry33+/Tn8uFhrihpsTbs9eeEv2Bztkb0+vHi79vK4rzS58az1p/X6czE37Vzt0aYyHufzISHwGONw2yUxnbg79e32KSv1Jqkz4t3uE2dy4K/3K6RxXGAvVjV6crP5sEZNqIEAAAJWklEQVR4nO2cC5OiMAyAlyK0BSkvFV+IwKrn//+Dh9vyUFELFN2dyTdzcze3yiZtkqZpytcXAAAAAAAAAAAAAAAAAAAAAAAAAAAAAAAAAAAAAAAAAAAAAAAAAAAAAPxpdDeJ5gVR4n5aFOW40WFjUMdxLItSyyr+gb1smdiflksNQZJ6PiMMaVdgk2I/3of6p+UbiJ5kJ0LwjXYlCBO2Tad/WMlg7znmA+2quSQ0nv1RHd0JJfi5ekJJS9v/QZd0M9OUUY+bK8GLP6ajnvo3+iHMCLVMjArns2gReNCNjsbyL9lq5NErBRhBubfZz5IwnIZhmMwWa89HBF3reJx+Wm5Z9InV8D9kWtauZe0LksPWsVhzHKzDJ8TtTuiTqygyiR5+VJ9/k2Y0srZ/IduZsVpkVqwELyJIcPAaM87y+XukHMCi9i7MjpFE9LDPXv0dZC7Hl3EQGa0jx+mxeV6jL2vDRs7vdsa4ktREXSTVU6cyVScdTbzB6LWCzjro9t2pV32XZOOINxx7XQqJzO6mpqfV9uO3qqh/lz6Ic1kPvOJc5TnOQrVwSqiCjGn0XNWmtHTGXxluUqu0sbh3gunmZY7j/L5F41wqaB4HZNCuJxJ2pP1TJ5sSQk34EOs/gxfck5hF7P+uBC44CQ9i3sB9nruqnqRGNEXsxDqBjY7L4D1uWdWhExWSKWIhFEQrBaaVlAZvzYY/TBFJGWVor3XwllkZbfxfsiXWA0O4To9MppUFLcOymucNItmvc0tYFflW9dSjmEXyaTv9tzGdupjNtspKSbpwRURUPbEP7t4wm1UWpPX2mv1dfEqE3ZP9IBmHEKT5dTlNs3rnWXZLFjohIjh/qoy6XJGbaj1Z937Yxrr/rm3w59PPpOChZ93oh6jRe7BnDtLul9Gzw1OIoTlSLxZXpy2IEcvJ096CRMWukN7HTH2LFS6xnQjW9Eo9Y72Yu/0HOswLTViLic94GmFuBsjaC7eup2jIzLNkWCLqXhTUUIuN63zH3/ajUZn61QqBnfxVuff14zRuiyy5/1nKl32UvXUbFVZ1BkRPw8vTs3LFaVv3EpHYmM46HPybZHG1KoHRDoMzGH1ShSy8bfn5qvplePOmeaz2uRrxhqf9ScOjNdQyXov65+bqLXUbvdznFjn24AkMJrR5BG62OKJt1J9AnUvMfZiUy4S1H/ooe4EbE3gZs7Y5SlDjINlctQyCWublr6NDLSac4Nukj7Uue+7OqZN71DoKCtFLxx92UmtP97F2PX8/4hvtH4/WiL1LxbTcePcqEOkFdnjebzyzvQXFeeTZ4a6KuOOq6AoFWVtcf0J4PqTZOvaMFXMcetf8VWv4eM37t6pOfMh5oBpPWIsMI+8Q0sK9d9GKMIYwetEb1ZJ810zKzACR0cJNKLyBSg+i/i9GMj1RPv/r+W5+Vg4Q0sZKUzdcw7ZNQDtJLNnyFXPZX7h3UqpoKit3XeP6/Bc4sqnMhLBHOl2BTjssNXZVndgZp/524HFGdrMWbOkjlW4giy0Sc/kiTYpEtb9TJJAn508nclPoGrJNeyiPSgd7Wa6YiVEjY5xnhKYYZ6lPB1vprkQ6n5Ql/Nc73ar+NkKx/8CfLVmC3t2nLA9gsV26l4Tx6SIYjNHIcMRcCKld2kzWBzWE3GW1mPuv3etcZh3qVwwuBtvJfNa+TaofU6zy1ZYa5RJii/obUV5EnTodHryQtlEr/drX3V4yFaeIL0HoNFSjW4TdUZlyiZ3LTqG508tl9kdqGdMTk+ioLmrwkUZSvQNz64FCt+Bc/8rq+X65Hv4g1mXlZsojOt7KjPJGLpfRWBE7zw2DZlLZmMs3qfLJoxz6mkk/1vakslGNeMFX4DcMmsh1JHJRVOc1evwjNZNZhlxfyg1JXIgYN6dbsjQiQpOl1hHFIYnU5j6UmkKyKwx+f+Wxkjl9xL9kqW2WFpZnythRIrHcI+syVuL4rARLysI1VHw23GUOJTQ0/csEzK8Tg/ZaW4ss3Av6FYsePzXuYKWvkm5R2o20a3+VLcCI0ZYdEEl0vkmViudT7XmkMfOfiBJp1/6KNNkiejzKcsHXOCzTVhmcnmnICD8qi25LbvJ7Pj7aWCpFliflOY1UV9764YqPTGfNA+byrg2g5SD/AcKeFM+h2B6aMmLMHmRtmKKM66dnd7m55HL/Vfuh4npUwgO7VCUxaMm8ESZoexAW4N5XADr0bOrGGLH0S+caSiU1X4ebSUSMrLb1jeaZf2/GHfotbD48RHUzPw8fyJMKeJ7Z1M7B37PauqfHWxcscPbykoit6tMKeR/ErrbtGPMeOyc/lmlSx8iWTd91M6clDnXqBRbbJ+m6rSyR0FBunQ3WlFh+PJkFV3OeZFpLOoBZJ4PjC5dMUacbohtS9tBAn+9D99qig2WM2y6uk24XDgMeaPBO+Z3hjXDwfnvrYLnWaNumwyRZt8n4Z40TaAoLEyWgtpaJG6bp9bXY8LB1aMuxIWKWOenqTjsux5PDxt7EWHLwIkJI1cmgJ+mKUhMJfsYIIYwZsSwjO3c2tVAMjt/1ixKIYixCr0b9Msq89mknaWwYW8/zTkae5yt/dfHmVW5sj9+Lc69mv++RVsMLZTMke5F+/3yON0S7ydQNbN227SBwXXdaEBZ/iv/rK0S5NTNHuaVQbsnp/vnnvsmlUDiGBFW1lMkdEHXmKBbrF3tVe+s4I/X2lIUdPNJZvsiXik3QcxvRo/k4R+2ipK+ZindONaLfs7DBj1zWmebcRgfceniF7pVXA/P39XtWBOXFRDriZXa37PvC6O3vdgjK+7Pqz52aRGVmieQ35WpIfJH0IcXV7luWVTX0vS+TOVSludFfm1GfaDLtbe89cndV9fgNtrOo9uiIKGj1lsBO6+Yj5x0vW1g23rRCaDb2jZYks+rKnPOem8HRqlGJMHGezafjdGDb0yg94UbRh77rXRLNWzOXFIciI15vJor53nkr2qwKIO19r1nQU/Pm1AEzZiqG3XSkEmP0RvYm4daRbppRAnYm736b2/nUWngZST96/ECeqM/ix03bKkGMHP995nV8erLOzVevthwKI/76rQ54g/1vsnIsYjKknEu5ijrke/6Gy0CvtIwO6eW2gWK8Y7Y//6YXuOjq+bRKAAAAAAAAAAAAAAAAAAAAAAAAAAAAAAAAAAAAAAAAAAAAAAAAAAAAQB/+A6e1ew94msGCAAAAAElFTkSuQmCC;" vertex="1" parent="1">
          <mxGeometry x="540" y="360" width="77.5" height="77.5" as="geometry" />
        </mxCell>
        <mxCell id="0Y9DeedcCKoHoYVFYHTG-43" style="edgeStyle=orthogonalEdgeStyle;rounded=0;orthogonalLoop=1;jettySize=auto;html=1;exitX=0.5;exitY=0;exitDx=0;exitDy=0;shape=link;" edge="1" parent="1" source="0Y9DeedcCKoHoYVFYHTG-22">
          <mxGeometry relative="1" as="geometry">
            <mxPoint x="740.3333333333335" y="280" as="targetPoint" />
          </mxGeometry>
        </mxCell>
        <mxCell id="0Y9DeedcCKoHoYVFYHTG-22" value="" style="rounded=1;whiteSpace=wrap;html=1;" vertex="1" parent="1">
          <mxGeometry x="680" y="320" width="120" height="120" as="geometry" />
        </mxCell>
        <mxCell id="0Y9DeedcCKoHoYVFYHTG-23" value="&lt;font style=&quot;font-size: 24px;&quot;&gt;Service&lt;/font&gt;" style="text;html=1;align=center;verticalAlign=middle;whiteSpace=wrap;rounded=0;" vertex="1" parent="1">
          <mxGeometry x="710" y="330" width="60" height="30" as="geometry" />
        </mxCell>
        <mxCell id="0Y9DeedcCKoHoYVFYHTG-24" value="" style="shape=image;verticalLabelPosition=bottom;labelBackgroundColor=default;verticalAlign=top;aspect=fixed;imageAspect=0;image=data:image/png,iVBORw0KGgoAAAANSUhEUgAAAOEAAADhCAMAAAAJbSJIAAAAflBMVEX///9tsz5rsjv7/fqo0JB+vFZnsTVqsjlmsDJkry5jry33+/Tn8uFhrihpsTbs9eeEv2Bztkb0+vHi79vK4rzS58az1p/X6czE37Vzt0aYyHufzISHwGONw2yUxnbg79e32KSv1Jqkz4t3uE2dy4K/3K6RxXGAvVjV6crP5sEZNqIEAAAJWklEQVR4nO2cC5OiMAyAlyK0BSkvFV+IwKrn//+Dh9vyUFELFN2dyTdzcze3yiZtkqZpytcXAAAAAAAAAAAAAAAAAAAAAAAAAAAAAAAAAAAAAAAAAAAAAAAAAAAAAPxpdDeJ5gVR4n5aFOW40WFjUMdxLItSyyr+gb1smdiflksNQZJ6PiMMaVdgk2I/3of6p+UbiJ5kJ0LwjXYlCBO2Tad/WMlg7znmA+2quSQ0nv1RHd0JJfi5ekJJS9v/QZd0M9OUUY+bK8GLP6ajnvo3+iHMCLVMjArns2gReNCNjsbyL9lq5NErBRhBubfZz5IwnIZhmMwWa89HBF3reJx+Wm5Z9InV8D9kWtauZe0LksPWsVhzHKzDJ8TtTuiTqygyiR5+VJ9/k2Y0srZ/IduZsVpkVqwELyJIcPAaM87y+XukHMCi9i7MjpFE9LDPXv0dZC7Hl3EQGa0jx+mxeV6jL2vDRs7vdsa4ktREXSTVU6cyVScdTbzB6LWCzjro9t2pV32XZOOINxx7XQqJzO6mpqfV9uO3qqh/lz6Ic1kPvOJc5TnOQrVwSqiCjGn0XNWmtHTGXxluUqu0sbh3gunmZY7j/L5F41wqaB4HZNCuJxJ2pP1TJ5sSQk34EOs/gxfck5hF7P+uBC44CQ9i3sB9nruqnqRGNEXsxDqBjY7L4D1uWdWhExWSKWIhFEQrBaaVlAZvzYY/TBFJGWVor3XwllkZbfxfsiXWA0O4To9MppUFLcOymucNItmvc0tYFflW9dSjmEXyaTv9tzGdupjNtspKSbpwRURUPbEP7t4wm1UWpPX2mv1dfEqE3ZP9IBmHEKT5dTlNs3rnWXZLFjohIjh/qoy6XJGbaj1Z937Yxrr/rm3w59PPpOChZ93oh6jRe7BnDtLul9Gzw1OIoTlSLxZXpy2IEcvJ096CRMWukN7HTH2LFS6xnQjW9Eo9Y72Yu/0HOswLTViLic94GmFuBsjaC7eup2jIzLNkWCLqXhTUUIuN63zH3/ajUZn61QqBnfxVuff14zRuiyy5/1nKl32UvXUbFVZ1BkRPw8vTs3LFaVv3EpHYmM46HPybZHG1KoHRDoMzGH1ShSy8bfn5qvplePOmeaz2uRrxhqf9ScOjNdQyXov65+bqLXUbvdznFjn24AkMJrR5BG62OKJt1J9AnUvMfZiUy4S1H/ooe4EbE3gZs7Y5SlDjINlctQyCWublr6NDLSac4Nukj7Uue+7OqZN71DoKCtFLxx92UmtP97F2PX8/4hvtH4/WiL1LxbTcePcqEOkFdnjebzyzvQXFeeTZ4a6KuOOq6AoFWVtcf0J4PqTZOvaMFXMcetf8VWv4eM37t6pOfMh5oBpPWIsMI+8Q0sK9d9GKMIYwetEb1ZJ810zKzACR0cJNKLyBSg+i/i9GMj1RPv/r+W5+Vg4Q0sZKUzdcw7ZNQDtJLNnyFXPZX7h3UqpoKit3XeP6/Bc4sqnMhLBHOl2BTjssNXZVndgZp/524HFGdrMWbOkjlW4giy0Sc/kiTYpEtb9TJJAn508nclPoGrJNeyiPSgd7Wa6YiVEjY5xnhKYYZ6lPB1vprkQ6n5Ql/Nc73ar+NkKx/8CfLVmC3t2nLA9gsV26l4Tx6SIYjNHIcMRcCKld2kzWBzWE3GW1mPuv3etcZh3qVwwuBtvJfNa+TaofU6zy1ZYa5RJii/obUV5EnTodHryQtlEr/drX3V4yFaeIL0HoNFSjW4TdUZlyiZ3LTqG508tl9kdqGdMTk+ioLmrwkUZSvQNz64FCt+Bc/8rq+X65Hv4g1mXlZsojOt7KjPJGLpfRWBE7zw2DZlLZmMs3qfLJoxz6mkk/1vakslGNeMFX4DcMmsh1JHJRVOc1evwjNZNZhlxfyg1JXIgYN6dbsjQiQpOl1hHFIYnU5j6UmkKyKwx+f+Wxkjl9xL9kqW2WFpZnythRIrHcI+syVuL4rARLysI1VHw23GUOJTQ0/csEzK8Tg/ZaW4ss3Av6FYsePzXuYKWvkm5R2o20a3+VLcCI0ZYdEEl0vkmViudT7XmkMfOfiBJp1/6KNNkiejzKcsHXOCzTVhmcnmnICD8qi25LbvJ7Pj7aWCpFliflOY1UV9764YqPTGfNA+byrg2g5SD/AcKeFM+h2B6aMmLMHmRtmKKM66dnd7m55HL/Vfuh4npUwgO7VCUxaMm8ESZoexAW4N5XADr0bOrGGLH0S+caSiU1X4ebSUSMrLb1jeaZf2/GHfotbD48RHUzPw8fyJMKeJ7Z1M7B37PauqfHWxcscPbykoit6tMKeR/ErrbtGPMeOyc/lmlSx8iWTd91M6clDnXqBRbbJ+m6rSyR0FBunQ3WlFh+PJkFV3OeZFpLOoBZJ4PjC5dMUacbohtS9tBAn+9D99qig2WM2y6uk24XDgMeaPBO+Z3hjXDwfnvrYLnWaNumwyRZt8n4Z40TaAoLEyWgtpaJG6bp9bXY8LB1aMuxIWKWOenqTjsux5PDxt7EWHLwIkJI1cmgJ+mKUhMJfsYIIYwZsSwjO3c2tVAMjt/1ixKIYixCr0b9Msq89mknaWwYW8/zTkae5yt/dfHmVW5sj9+Lc69mv++RVsMLZTMke5F+/3yON0S7ydQNbN227SBwXXdaEBZ/iv/rK0S5NTNHuaVQbsnp/vnnvsmlUDiGBFW1lMkdEHXmKBbrF3tVe+s4I/X2lIUdPNJZvsiXik3QcxvRo/k4R+2ipK+ZindONaLfs7DBj1zWmebcRgfceniF7pVXA/P39XtWBOXFRDriZXa37PvC6O3vdgjK+7Pqz52aRGVmieQ35WpIfJH0IcXV7luWVTX0vS+TOVSludFfm1GfaDLtbe89cndV9fgNtrOo9uiIKGj1lsBO6+Yj5x0vW1g23rRCaDb2jZYks+rKnPOem8HRqlGJMHGezafjdGDb0yg94UbRh77rXRLNWzOXFIciI15vJor53nkr2qwKIO19r1nQU/Pm1AEzZiqG3XSkEmP0RvYm4daRbppRAnYm736b2/nUWngZST96/ECeqM/ix03bKkGMHP995nV8erLOzVevthwKI/76rQ54g/1vsnIsYjKknEu5ijrke/6Gy0CvtIwO6eW2gWK8Y7Y//6YXuOjq+bRKAAAAAAAAAAAAAAAAAAAAAAAAAAAAAAAAAAAAAAAAAAAAAAAAAAAAQB/+A6e1ew94msGCAAAAAElFTkSuQmCC;" vertex="1" parent="1">
          <mxGeometry x="700" y="360" width="77.5" height="77.5" as="geometry" />
        </mxCell>
        <mxCell id="0Y9DeedcCKoHoYVFYHTG-44" style="edgeStyle=orthogonalEdgeStyle;rounded=0;orthogonalLoop=1;jettySize=auto;html=1;exitX=0.5;exitY=0;exitDx=0;exitDy=0;shape=link;" edge="1" parent="1" source="0Y9DeedcCKoHoYVFYHTG-25">
          <mxGeometry relative="1" as="geometry">
            <mxPoint x="910" y="280" as="targetPoint" />
          </mxGeometry>
        </mxCell>
        <mxCell id="0Y9DeedcCKoHoYVFYHTG-25" value="" style="rounded=1;whiteSpace=wrap;html=1;" vertex="1" parent="1">
          <mxGeometry x="850" y="320" width="120" height="120" as="geometry" />
        </mxCell>
        <mxCell id="0Y9DeedcCKoHoYVFYHTG-26" value="&lt;font style=&quot;font-size: 24px;&quot;&gt;Service&lt;/font&gt;" style="text;html=1;align=center;verticalAlign=middle;whiteSpace=wrap;rounded=0;" vertex="1" parent="1">
          <mxGeometry x="880" y="330" width="60" height="30" as="geometry" />
        </mxCell>
        <mxCell id="0Y9DeedcCKoHoYVFYHTG-27" value="" style="shape=image;verticalLabelPosition=bottom;labelBackgroundColor=default;verticalAlign=top;aspect=fixed;imageAspect=0;image=data:image/png,iVBORw0KGgoAAAANSUhEUgAAAOEAAADhCAMAAAAJbSJIAAAAflBMVEX///9tsz5rsjv7/fqo0JB+vFZnsTVqsjlmsDJkry5jry33+/Tn8uFhrihpsTbs9eeEv2Bztkb0+vHi79vK4rzS58az1p/X6czE37Vzt0aYyHufzISHwGONw2yUxnbg79e32KSv1Jqkz4t3uE2dy4K/3K6RxXGAvVjV6crP5sEZNqIEAAAJWklEQVR4nO2cC5OiMAyAlyK0BSkvFV+IwKrn//+Dh9vyUFELFN2dyTdzcze3yiZtkqZpytcXAAAAAAAAAAAAAAAAAAAAAAAAAAAAAAAAAAAAAAAAAAAAAAAAAAAAAPxpdDeJ5gVR4n5aFOW40WFjUMdxLItSyyr+gb1smdiflksNQZJ6PiMMaVdgk2I/3of6p+UbiJ5kJ0LwjXYlCBO2Tad/WMlg7znmA+2quSQ0nv1RHd0JJfi5ekJJS9v/QZd0M9OUUY+bK8GLP6ajnvo3+iHMCLVMjArns2gReNCNjsbyL9lq5NErBRhBubfZz5IwnIZhmMwWa89HBF3reJx+Wm5Z9InV8D9kWtauZe0LksPWsVhzHKzDJ8TtTuiTqygyiR5+VJ9/k2Y0srZ/IduZsVpkVqwELyJIcPAaM87y+XukHMCi9i7MjpFE9LDPXv0dZC7Hl3EQGa0jx+mxeV6jL2vDRs7vdsa4ktREXSTVU6cyVScdTbzB6LWCzjro9t2pV32XZOOINxx7XQqJzO6mpqfV9uO3qqh/lz6Ic1kPvOJc5TnOQrVwSqiCjGn0XNWmtHTGXxluUqu0sbh3gunmZY7j/L5F41wqaB4HZNCuJxJ2pP1TJ5sSQk34EOs/gxfck5hF7P+uBC44CQ9i3sB9nruqnqRGNEXsxDqBjY7L4D1uWdWhExWSKWIhFEQrBaaVlAZvzYY/TBFJGWVor3XwllkZbfxfsiXWA0O4To9MppUFLcOymucNItmvc0tYFflW9dSjmEXyaTv9tzGdupjNtspKSbpwRURUPbEP7t4wm1UWpPX2mv1dfEqE3ZP9IBmHEKT5dTlNs3rnWXZLFjohIjh/qoy6XJGbaj1Z937Yxrr/rm3w59PPpOChZ93oh6jRe7BnDtLul9Gzw1OIoTlSLxZXpy2IEcvJ096CRMWukN7HTH2LFS6xnQjW9Eo9Y72Yu/0HOswLTViLic94GmFuBsjaC7eup2jIzLNkWCLqXhTUUIuN63zH3/ajUZn61QqBnfxVuff14zRuiyy5/1nKl32UvXUbFVZ1BkRPw8vTs3LFaVv3EpHYmM46HPybZHG1KoHRDoMzGH1ShSy8bfn5qvplePOmeaz2uRrxhqf9ScOjNdQyXov65+bqLXUbvdznFjn24AkMJrR5BG62OKJt1J9AnUvMfZiUy4S1H/ooe4EbE3gZs7Y5SlDjINlctQyCWublr6NDLSac4Nukj7Uue+7OqZN71DoKCtFLxx92UmtP97F2PX8/4hvtH4/WiL1LxbTcePcqEOkFdnjebzyzvQXFeeTZ4a6KuOOq6AoFWVtcf0J4PqTZOvaMFXMcetf8VWv4eM37t6pOfMh5oBpPWIsMI+8Q0sK9d9GKMIYwetEb1ZJ810zKzACR0cJNKLyBSg+i/i9GMj1RPv/r+W5+Vg4Q0sZKUzdcw7ZNQDtJLNnyFXPZX7h3UqpoKit3XeP6/Bc4sqnMhLBHOl2BTjssNXZVndgZp/524HFGdrMWbOkjlW4giy0Sc/kiTYpEtb9TJJAn508nclPoGrJNeyiPSgd7Wa6YiVEjY5xnhKYYZ6lPB1vprkQ6n5Ql/Nc73ar+NkKx/8CfLVmC3t2nLA9gsV26l4Tx6SIYjNHIcMRcCKld2kzWBzWE3GW1mPuv3etcZh3qVwwuBtvJfNa+TaofU6zy1ZYa5RJii/obUV5EnTodHryQtlEr/drX3V4yFaeIL0HoNFSjW4TdUZlyiZ3LTqG508tl9kdqGdMTk+ioLmrwkUZSvQNz64FCt+Bc/8rq+X65Hv4g1mXlZsojOt7KjPJGLpfRWBE7zw2DZlLZmMs3qfLJoxz6mkk/1vakslGNeMFX4DcMmsh1JHJRVOc1evwjNZNZhlxfyg1JXIgYN6dbsjQiQpOl1hHFIYnU5j6UmkKyKwx+f+Wxkjl9xL9kqW2WFpZnythRIrHcI+syVuL4rARLysI1VHw23GUOJTQ0/csEzK8Tg/ZaW4ss3Av6FYsePzXuYKWvkm5R2o20a3+VLcCI0ZYdEEl0vkmViudT7XmkMfOfiBJp1/6KNNkiejzKcsHXOCzTVhmcnmnICD8qi25LbvJ7Pj7aWCpFliflOY1UV9764YqPTGfNA+byrg2g5SD/AcKeFM+h2B6aMmLMHmRtmKKM66dnd7m55HL/Vfuh4npUwgO7VCUxaMm8ESZoexAW4N5XADr0bOrGGLH0S+caSiU1X4ebSUSMrLb1jeaZf2/GHfotbD48RHUzPw8fyJMKeJ7Z1M7B37PauqfHWxcscPbykoit6tMKeR/ErrbtGPMeOyc/lmlSx8iWTd91M6clDnXqBRbbJ+m6rSyR0FBunQ3WlFh+PJkFV3OeZFpLOoBZJ4PjC5dMUacbohtS9tBAn+9D99qig2WM2y6uk24XDgMeaPBO+Z3hjXDwfnvrYLnWaNumwyRZt8n4Z40TaAoLEyWgtpaJG6bp9bXY8LB1aMuxIWKWOenqTjsux5PDxt7EWHLwIkJI1cmgJ+mKUhMJfsYIIYwZsSwjO3c2tVAMjt/1ixKIYixCr0b9Msq89mknaWwYW8/zTkae5yt/dfHmVW5sj9+Lc69mv++RVsMLZTMke5F+/3yON0S7ydQNbN227SBwXXdaEBZ/iv/rK0S5NTNHuaVQbsnp/vnnvsmlUDiGBFW1lMkdEHXmKBbrF3tVe+s4I/X2lIUdPNJZvsiXik3QcxvRo/k4R+2ipK+ZindONaLfs7DBj1zWmebcRgfceniF7pVXA/P39XtWBOXFRDriZXa37PvC6O3vdgjK+7Pqz52aRGVmieQ35WpIfJH0IcXV7luWVTX0vS+TOVSludFfm1GfaDLtbe89cndV9fgNtrOo9uiIKGj1lsBO6+Yj5x0vW1g23rRCaDb2jZYks+rKnPOem8HRqlGJMHGezafjdGDb0yg94UbRh77rXRLNWzOXFIciI15vJor53nkr2qwKIO19r1nQU/Pm1AEzZiqG3XSkEmP0RvYm4daRbppRAnYm736b2/nUWngZST96/ECeqM/ix03bKkGMHP995nV8erLOzVevthwKI/76rQ54g/1vsnIsYjKknEu5ijrke/6Gy0CvtIwO6eW2gWK8Y7Y//6YXuOjq+bRKAAAAAAAAAAAAAAAAAAAAAAAAAAAAAAAAAAAAAAAAAAAAAAAAAAAAQB/+A6e1ew94msGCAAAAAElFTkSuQmCC;" vertex="1" parent="1">
          <mxGeometry x="870" y="360" width="77.5" height="77.5" as="geometry" />
        </mxCell>
        <mxCell id="0Y9DeedcCKoHoYVFYHTG-55" style="edgeStyle=orthogonalEdgeStyle;rounded=0;orthogonalLoop=1;jettySize=auto;html=1;exitX=0.5;exitY=1;exitDx=0;exitDy=0;shape=link;" edge="1" parent="1" source="0Y9DeedcCKoHoYVFYHTG-28">
          <mxGeometry relative="1" as="geometry">
            <mxPoint x="739.5" y="280.00000000000045" as="targetPoint" />
          </mxGeometry>
        </mxCell>
        <mxCell id="0Y9DeedcCKoHoYVFYHTG-28" value="" style="rounded=1;whiteSpace=wrap;html=1;" vertex="1" parent="1">
          <mxGeometry x="668.75" y="100.03999999999996" width="140" height="139.96" as="geometry" />
        </mxCell>
        <mxCell id="0Y9DeedcCKoHoYVFYHTG-29" value="&lt;font style=&quot;font-size: 24px;&quot;&gt;Autorization&lt;br&gt;&lt;/font&gt;" style="text;html=1;align=center;verticalAlign=middle;whiteSpace=wrap;rounded=0;" vertex="1" parent="1">
          <mxGeometry x="711.25" y="115.66999999999996" width="60" height="30" as="geometry" />
        </mxCell>
        <mxCell id="0Y9DeedcCKoHoYVFYHTG-30" value="" style="shape=image;verticalLabelPosition=bottom;labelBackgroundColor=default;verticalAlign=top;aspect=fixed;imageAspect=0;image=data:image/png,iVBORw0KGgoAAAANSUhEUgAAAOEAAADhCAMAAAAJbSJIAAAAflBMVEX///9tsz5rsjv7/fqo0JB+vFZnsTVqsjlmsDJkry5jry33+/Tn8uFhrihpsTbs9eeEv2Bztkb0+vHi79vK4rzS58az1p/X6czE37Vzt0aYyHufzISHwGONw2yUxnbg79e32KSv1Jqkz4t3uE2dy4K/3K6RxXGAvVjV6crP5sEZNqIEAAAJWklEQVR4nO2cC5OiMAyAlyK0BSkvFV+IwKrn//+Dh9vyUFELFN2dyTdzcze3yiZtkqZpytcXAAAAAAAAAAAAAAAAAAAAAAAAAAAAAAAAAAAAAAAAAAAAAAAAAAAAAPxpdDeJ5gVR4n5aFOW40WFjUMdxLItSyyr+gb1smdiflksNQZJ6PiMMaVdgk2I/3of6p+UbiJ5kJ0LwjXYlCBO2Tad/WMlg7znmA+2quSQ0nv1RHd0JJfi5ekJJS9v/QZd0M9OUUY+bK8GLP6ajnvo3+iHMCLVMjArns2gReNCNjsbyL9lq5NErBRhBubfZz5IwnIZhmMwWa89HBF3reJx+Wm5Z9InV8D9kWtauZe0LksPWsVhzHKzDJ8TtTuiTqygyiR5+VJ9/k2Y0srZ/IduZsVpkVqwELyJIcPAaM87y+XukHMCi9i7MjpFE9LDPXv0dZC7Hl3EQGa0jx+mxeV6jL2vDRs7vdsa4ktREXSTVU6cyVScdTbzB6LWCzjro9t2pV32XZOOINxx7XQqJzO6mpqfV9uO3qqh/lz6Ic1kPvOJc5TnOQrVwSqiCjGn0XNWmtHTGXxluUqu0sbh3gunmZY7j/L5F41wqaB4HZNCuJxJ2pP1TJ5sSQk34EOs/gxfck5hF7P+uBC44CQ9i3sB9nruqnqRGNEXsxDqBjY7L4D1uWdWhExWSKWIhFEQrBaaVlAZvzYY/TBFJGWVor3XwllkZbfxfsiXWA0O4To9MppUFLcOymucNItmvc0tYFflW9dSjmEXyaTv9tzGdupjNtspKSbpwRURUPbEP7t4wm1UWpPX2mv1dfEqE3ZP9IBmHEKT5dTlNs3rnWXZLFjohIjh/qoy6XJGbaj1Z937Yxrr/rm3w59PPpOChZ93oh6jRe7BnDtLul9Gzw1OIoTlSLxZXpy2IEcvJ096CRMWukN7HTH2LFS6xnQjW9Eo9Y72Yu/0HOswLTViLic94GmFuBsjaC7eup2jIzLNkWCLqXhTUUIuN63zH3/ajUZn61QqBnfxVuff14zRuiyy5/1nKl32UvXUbFVZ1BkRPw8vTs3LFaVv3EpHYmM46HPybZHG1KoHRDoMzGH1ShSy8bfn5qvplePOmeaz2uRrxhqf9ScOjNdQyXov65+bqLXUbvdznFjn24AkMJrR5BG62OKJt1J9AnUvMfZiUy4S1H/ooe4EbE3gZs7Y5SlDjINlctQyCWublr6NDLSac4Nukj7Uue+7OqZN71DoKCtFLxx92UmtP97F2PX8/4hvtH4/WiL1LxbTcePcqEOkFdnjebzyzvQXFeeTZ4a6KuOOq6AoFWVtcf0J4PqTZOvaMFXMcetf8VWv4eM37t6pOfMh5oBpPWIsMI+8Q0sK9d9GKMIYwetEb1ZJ810zKzACR0cJNKLyBSg+i/i9GMj1RPv/r+W5+Vg4Q0sZKUzdcw7ZNQDtJLNnyFXPZX7h3UqpoKit3XeP6/Bc4sqnMhLBHOl2BTjssNXZVndgZp/524HFGdrMWbOkjlW4giy0Sc/kiTYpEtb9TJJAn508nclPoGrJNeyiPSgd7Wa6YiVEjY5xnhKYYZ6lPB1vprkQ6n5Ql/Nc73ar+NkKx/8CfLVmC3t2nLA9gsV26l4Tx6SIYjNHIcMRcCKld2kzWBzWE3GW1mPuv3etcZh3qVwwuBtvJfNa+TaofU6zy1ZYa5RJii/obUV5EnTodHryQtlEr/drX3V4yFaeIL0HoNFSjW4TdUZlyiZ3LTqG508tl9kdqGdMTk+ioLmrwkUZSvQNz64FCt+Bc/8rq+X65Hv4g1mXlZsojOt7KjPJGLpfRWBE7zw2DZlLZmMs3qfLJoxz6mkk/1vakslGNeMFX4DcMmsh1JHJRVOc1evwjNZNZhlxfyg1JXIgYN6dbsjQiQpOl1hHFIYnU5j6UmkKyKwx+f+Wxkjl9xL9kqW2WFpZnythRIrHcI+syVuL4rARLysI1VHw23GUOJTQ0/csEzK8Tg/ZaW4ss3Av6FYsePzXuYKWvkm5R2o20a3+VLcCI0ZYdEEl0vkmViudT7XmkMfOfiBJp1/6KNNkiejzKcsHXOCzTVhmcnmnICD8qi25LbvJ7Pj7aWCpFliflOY1UV9764YqPTGfNA+byrg2g5SD/AcKeFM+h2B6aMmLMHmRtmKKM66dnd7m55HL/Vfuh4npUwgO7VCUxaMm8ESZoexAW4N5XADr0bOrGGLH0S+caSiU1X4ebSUSMrLb1jeaZf2/GHfotbD48RHUzPw8fyJMKeJ7Z1M7B37PauqfHWxcscPbykoit6tMKeR/ErrbtGPMeOyc/lmlSx8iWTd91M6clDnXqBRbbJ+m6rSyR0FBunQ3WlFh+PJkFV3OeZFpLOoBZJ4PjC5dMUacbohtS9tBAn+9D99qig2WM2y6uk24XDgMeaPBO+Z3hjXDwfnvrYLnWaNumwyRZt8n4Z40TaAoLEyWgtpaJG6bp9bXY8LB1aMuxIWKWOenqTjsux5PDxt7EWHLwIkJI1cmgJ+mKUhMJfsYIIYwZsSwjO3c2tVAMjt/1ixKIYixCr0b9Msq89mknaWwYW8/zTkae5yt/dfHmVW5sj9+Lc69mv++RVsMLZTMke5F+/3yON0S7ydQNbN227SBwXXdaEBZ/iv/rK0S5NTNHuaVQbsnp/vnnvsmlUDiGBFW1lMkdEHXmKBbrF3tVe+s4I/X2lIUdPNJZvsiXik3QcxvRo/k4R+2ipK+ZindONaLfs7DBj1zWmebcRgfceniF7pVXA/P39XtWBOXFRDriZXa37PvC6O3vdgjK+7Pqz52aRGVmieQ35WpIfJH0IcXV7luWVTX0vS+TOVSludFfm1GfaDLtbe89cndV9fgNtrOo9uiIKGj1lsBO6+Yj5x0vW1g23rRCaDb2jZYks+rKnPOem8HRqlGJMHGezafjdGDb0yg94UbRh77rXRLNWzOXFIciI15vJor53nkr2qwKIO19r1nQU/Pm1AEzZiqG3XSkEmP0RvYm4daRbppRAnYm736b2/nUWngZST96/ECeqM/ix03bKkGMHP995nV8erLOzVevthwKI/76rQ54g/1vsnIsYjKknEu5ijrke/6Gy0CvtIwO6eW2gWK8Y7Y//6YXuOjq+bRKAAAAAAAAAAAAAAAAAAAAAAAAAAAAAAAAAAAAAAAAAAAAAAAAAAAAQB/+A6e1ew94msGCAAAAAElFTkSuQmCC;" vertex="1" parent="1">
          <mxGeometry x="702.5" y="146.88" width="77.5" height="77.5" as="geometry" />
        </mxCell>
        <mxCell id="0Y9DeedcCKoHoYVFYHTG-31" value="" style="rounded=0;whiteSpace=wrap;html=1;strokeWidth=2;" vertex="1" parent="1">
          <mxGeometry x="1043" y="317.5" width="120" height="120" as="geometry" />
        </mxCell>
        <mxCell id="0Y9DeedcCKoHoYVFYHTG-32" value="&lt;font style=&quot;font-size: 24px;&quot;&gt;Config&lt;/font&gt;" style="text;html=1;align=center;verticalAlign=middle;whiteSpace=wrap;rounded=0;" vertex="1" parent="1">
          <mxGeometry x="1073" y="327.5" width="60" height="30" as="geometry" />
        </mxCell>
        <mxCell id="0Y9DeedcCKoHoYVFYHTG-33" value="" style="shape=image;verticalLabelPosition=bottom;labelBackgroundColor=default;verticalAlign=top;aspect=fixed;imageAspect=0;image=data:image/png,iVBORw0KGgoAAAANSUhEUgAAAOEAAADhCAMAAAAJbSJIAAAAflBMVEX///9tsz5rsjv7/fqo0JB+vFZnsTVqsjlmsDJkry5jry33+/Tn8uFhrihpsTbs9eeEv2Bztkb0+vHi79vK4rzS58az1p/X6czE37Vzt0aYyHufzISHwGONw2yUxnbg79e32KSv1Jqkz4t3uE2dy4K/3K6RxXGAvVjV6crP5sEZNqIEAAAJWklEQVR4nO2cC5OiMAyAlyK0BSkvFV+IwKrn//+Dh9vyUFELFN2dyTdzcze3yiZtkqZpytcXAAAAAAAAAAAAAAAAAAAAAAAAAAAAAAAAAAAAAAAAAAAAAAAAAAAAAPxpdDeJ5gVR4n5aFOW40WFjUMdxLItSyyr+gb1smdiflksNQZJ6PiMMaVdgk2I/3of6p+UbiJ5kJ0LwjXYlCBO2Tad/WMlg7znmA+2quSQ0nv1RHd0JJfi5ekJJS9v/QZd0M9OUUY+bK8GLP6ajnvo3+iHMCLVMjArns2gReNCNjsbyL9lq5NErBRhBubfZz5IwnIZhmMwWa89HBF3reJx+Wm5Z9InV8D9kWtauZe0LksPWsVhzHKzDJ8TtTuiTqygyiR5+VJ9/k2Y0srZ/IduZsVpkVqwELyJIcPAaM87y+XukHMCi9i7MjpFE9LDPXv0dZC7Hl3EQGa0jx+mxeV6jL2vDRs7vdsa4ktREXSTVU6cyVScdTbzB6LWCzjro9t2pV32XZOOINxx7XQqJzO6mpqfV9uO3qqh/lz6Ic1kPvOJc5TnOQrVwSqiCjGn0XNWmtHTGXxluUqu0sbh3gunmZY7j/L5F41wqaB4HZNCuJxJ2pP1TJ5sSQk34EOs/gxfck5hF7P+uBC44CQ9i3sB9nruqnqRGNEXsxDqBjY7L4D1uWdWhExWSKWIhFEQrBaaVlAZvzYY/TBFJGWVor3XwllkZbfxfsiXWA0O4To9MppUFLcOymucNItmvc0tYFflW9dSjmEXyaTv9tzGdupjNtspKSbpwRURUPbEP7t4wm1UWpPX2mv1dfEqE3ZP9IBmHEKT5dTlNs3rnWXZLFjohIjh/qoy6XJGbaj1Z937Yxrr/rm3w59PPpOChZ93oh6jRe7BnDtLul9Gzw1OIoTlSLxZXpy2IEcvJ096CRMWukN7HTH2LFS6xnQjW9Eo9Y72Yu/0HOswLTViLic94GmFuBsjaC7eup2jIzLNkWCLqXhTUUIuN63zH3/ajUZn61QqBnfxVuff14zRuiyy5/1nKl32UvXUbFVZ1BkRPw8vTs3LFaVv3EpHYmM46HPybZHG1KoHRDoMzGH1ShSy8bfn5qvplePOmeaz2uRrxhqf9ScOjNdQyXov65+bqLXUbvdznFjn24AkMJrR5BG62OKJt1J9AnUvMfZiUy4S1H/ooe4EbE3gZs7Y5SlDjINlctQyCWublr6NDLSac4Nukj7Uue+7OqZN71DoKCtFLxx92UmtP97F2PX8/4hvtH4/WiL1LxbTcePcqEOkFdnjebzyzvQXFeeTZ4a6KuOOq6AoFWVtcf0J4PqTZOvaMFXMcetf8VWv4eM37t6pOfMh5oBpPWIsMI+8Q0sK9d9GKMIYwetEb1ZJ810zKzACR0cJNKLyBSg+i/i9GMj1RPv/r+W5+Vg4Q0sZKUzdcw7ZNQDtJLNnyFXPZX7h3UqpoKit3XeP6/Bc4sqnMhLBHOl2BTjssNXZVndgZp/524HFGdrMWbOkjlW4giy0Sc/kiTYpEtb9TJJAn508nclPoGrJNeyiPSgd7Wa6YiVEjY5xnhKYYZ6lPB1vprkQ6n5Ql/Nc73ar+NkKx/8CfLVmC3t2nLA9gsV26l4Tx6SIYjNHIcMRcCKld2kzWBzWE3GW1mPuv3etcZh3qVwwuBtvJfNa+TaofU6zy1ZYa5RJii/obUV5EnTodHryQtlEr/drX3V4yFaeIL0HoNFSjW4TdUZlyiZ3LTqG508tl9kdqGdMTk+ioLmrwkUZSvQNz64FCt+Bc/8rq+X65Hv4g1mXlZsojOt7KjPJGLpfRWBE7zw2DZlLZmMs3qfLJoxz6mkk/1vakslGNeMFX4DcMmsh1JHJRVOc1evwjNZNZhlxfyg1JXIgYN6dbsjQiQpOl1hHFIYnU5j6UmkKyKwx+f+Wxkjl9xL9kqW2WFpZnythRIrHcI+syVuL4rARLysI1VHw23GUOJTQ0/csEzK8Tg/ZaW4ss3Av6FYsePzXuYKWvkm5R2o20a3+VLcCI0ZYdEEl0vkmViudT7XmkMfOfiBJp1/6KNNkiejzKcsHXOCzTVhmcnmnICD8qi25LbvJ7Pj7aWCpFliflOY1UV9764YqPTGfNA+byrg2g5SD/AcKeFM+h2B6aMmLMHmRtmKKM66dnd7m55HL/Vfuh4npUwgO7VCUxaMm8ESZoexAW4N5XADr0bOrGGLH0S+caSiU1X4ebSUSMrLb1jeaZf2/GHfotbD48RHUzPw8fyJMKeJ7Z1M7B37PauqfHWxcscPbykoit6tMKeR/ErrbtGPMeOyc/lmlSx8iWTd91M6clDnXqBRbbJ+m6rSyR0FBunQ3WlFh+PJkFV3OeZFpLOoBZJ4PjC5dMUacbohtS9tBAn+9D99qig2WM2y6uk24XDgMeaPBO+Z3hjXDwfnvrYLnWaNumwyRZt8n4Z40TaAoLEyWgtpaJG6bp9bXY8LB1aMuxIWKWOenqTjsux5PDxt7EWHLwIkJI1cmgJ+mKUhMJfsYIIYwZsSwjO3c2tVAMjt/1ixKIYixCr0b9Msq89mknaWwYW8/zTkae5yt/dfHmVW5sj9+Lc69mv++RVsMLZTMke5F+/3yON0S7ydQNbN227SBwXXdaEBZ/iv/rK0S5NTNHuaVQbsnp/vnnvsmlUDiGBFW1lMkdEHXmKBbrF3tVe+s4I/X2lIUdPNJZvsiXik3QcxvRo/k4R+2ipK+ZindONaLfs7DBj1zWmebcRgfceniF7pVXA/P39XtWBOXFRDriZXa37PvC6O3vdgjK+7Pqz52aRGVmieQ35WpIfJH0IcXV7luWVTX0vS+TOVSludFfm1GfaDLtbe89cndV9fgNtrOo9uiIKGj1lsBO6+Yj5x0vW1g23rRCaDb2jZYks+rKnPOem8HRqlGJMHGezafjdGDb0yg94UbRh77rXRLNWzOXFIciI15vJor53nkr2qwKIO19r1nQU/Pm1AEzZiqG3XSkEmP0RvYm4daRbppRAnYm736b2/nUWngZST96/ECeqM/ix03bKkGMHP995nV8erLOzVevthwKI/76rQ54g/1vsnIsYjKknEu5ijrke/6Gy0CvtIwO6eW2gWK8Y7Y//6YXuOjq+bRKAAAAAAAAAAAAAAAAAAAAAAAAAAAAAAAAAAAAAAAAAAAAAAAAAAAAQB/+A6e1ew94msGCAAAAAElFTkSuQmCC;" vertex="1" parent="1">
          <mxGeometry x="1063" y="357.5" width="77.5" height="77.5" as="geometry" />
        </mxCell>
        <mxCell id="0Y9DeedcCKoHoYVFYHTG-34" value="" style="shape=cylinder3;whiteSpace=wrap;html=1;boundedLbl=1;backgroundOutline=1;size=15;" vertex="1" parent="1">
          <mxGeometry x="678.74" y="490" width="120" height="140" as="geometry" />
        </mxCell>
        <mxCell id="0Y9DeedcCKoHoYVFYHTG-35" value="" style="shape=image;verticalLabelPosition=bottom;labelBackgroundColor=default;verticalAlign=top;aspect=fixed;imageAspect=0;image=data:image/png,iVBORw0KGgoAAAANSUhEUgAAANUAAADtCAMAAAAft8BxAAAAwFBMVEX///8xYZIAAAAxYZEqXY8UU4oaVYsmW45BQUEeV4xSdp8qXZAiWY3W1tbz8/Pq6upgYGArKyt0kbG3t7eurq7y8vKgoKDh4eHg5u2mpqaTk5Pp7vP5+fmLi4vc3NwwMDDIyMh/f3/Nzc1VVVVFb5uFnbm/v797e3sVFRXS2+UjIyNubm5OTk5cXFyPj49qiazEz9y5xtaTqMGktcoYGBi/zNpujK5PdZ8kJCQ4ODhegKadsMaqu84ATIaNo70ARoMqO7DRAAAV4UlEQVR4nO1diXaqSrMGoUEEhzgPmJg4xWgSNdOOGv/3f6tLVTXQDJLsbCEn6/Kts09UULqo6pq7kaQcOXLkyJEjR44cOXLkyJEjR44cOXLkyJEjR44cOf4SrfKsN7xe1u5ry/mwNyu3fnpAfwe7Ve1cdloV/5PWbLgqRPBn2bv8uVG6uGz05/fvF3d3f67Gy2G7UbYjp1Qbw9WzN+yL+2GjI90M36MUubid3/wAJS467ZibXXge90c+S1rtq9PDTyCsXUm4cIpoJNztwsX1CJjWqSUP/m583W6MypeXl+XyqNmfi3dpGOV66miGb+5tZMjj5lJ4V3T0wfV8ee+x7r59EzPuTmPufaWdMU2XF+6Vr+a9UZVLS6VanrXnxSh5vRtRniqXjeEwaeaUr/kX/2SqONr8qstZrPR3mvM/Po9mn0mSbVcqFTt4VoPftv65hvw5uGD1kyZ0tXmPJz0k/VB3s38tKabBGDMspfS6Xw+8Yw3O56xm1zg8mQeLl83hsHlZdAN02o1xzbWqg/XTsf76+Do9Hl663hmtLdNMVZYV2YGqmpbB5OnaPTrE6zxnY5iRU7dl/m6x3xlM0wwHGtzy0vSwCN/exVFhmmHppmnqlqFpWmm74IfsreZSRVB1zdxyjl3eIV2dDIjqw4XeaeCDvcIsVRah6gYz3o5rn7LNJHyOrFqaPOWEdXcafeiTZrEpp6uWEVmXqAHo9d4wQsP1R23tXmjQEy3+HJ290RnSgUXO0LUtHSNtmLoQglA8IyO6ihE7XIKp4O3eR0fs084mNIe6iq6EDxoTmn6obv+kTBTKH1qRl4TxOrCQqEeWcIri0LXD0+ydFT4kq9rBv+J9qkTZnrJ+SRqvLDPkQniw4qgJJh97XYtwS2ZTPIRC2EyTKpQHeLFIJsrYJhClBP6wV/zlqRY9UavjobF70bQAzl4PXiiJ4mdO4JxjzECjxMnWZEBkKfxTxTtMZKGAjNIjquzeteMp0eL3H7T2+hQ7FY8gBf+pOiqGqRE8Cf7TjnDkwbnqPD2qwJ2+dv4OkuXPfHTOsc1EdgZgIFk7XQ4YZHjHNhJZk7v0qAJWgVMx1RMHyWCQ02R2BmHBN+yJGqbKOWLz66ZGVAdcJbh88oDNnXNON5md/gQiMnSYWwER4OQZwCxwlKtpUdXk8r1JVgM4q+rJ7AwOHfQL8GTDIgd1UBigelNLZYBf23D+PppJI1VBASbNvKhlcj6ygMHSa/RewK810lSCRe5pJhIlG0/OKfu/mVUIDb5mB6kC+nWJ1MUsLar4pP1kyjCYImqyAlQ8m+QzDnUMCnfgY82mCZ0WVS3nty/gykleray+SZ+6HvFfRNNdCguC5kSi1RSpgjtWc/5uE6ULBfAT1e9BEfmCMrhgiqAaZWJ9NUVtUeY2OGZKi/cWNKD8NQvsexn4AmXXV0V0zOVVWummEU/RTRKHbEhfMFYCWYJGtMBJ74a8d90mbZGWvWrwiCCREegtHRJnnue/BhiF3iwojJ3pyiUdl0hKUiIKqQJzlSiA1t454zGRm0rsSwCa3IXILAV1yCxlqkATJTLCgHAxOU4RiFEUTzfgKw1mlisLeMSE8KtXKKzSpipRBcKM/8SlD5LmUqjqumUxiDYDFtyCWOQ6xUhk9hWqTAlkiF5amsaYFk6bRQlzxq7ppfrxeJyiCIo3xYIMQI3HqmlR1fiMKpgGYKYtJr/u14vuYr0vxebOhMhRV7dd8UKywEg0FHcpOrflL2gLVIFbQ1PdJCbAS2R6dASkT5uGkr0TIUYBc1VJMyVY5UmLJHulg8mpK5vQV7cJsQsLn4zKhtOtKhLeztu0iMKsyFBKDkQsmO4+myoDXk84CorTNb2cU5Q66x6O9cfH+hG+O5E9Y4a6vkmeWkq4KBSWUrKTZz15Z3efHhVLMxTKmQsMDoifinHVYvK/D4MxU/8AxgmGwQCa56mWHR1V9O78OSSoC+PAzz1MmKGamilr7AMzTidkEO3b5uNt7TB1bSmgHGzTJx29jQvKlqSEBzLxi4RJYtAkebJA76lvwKbFjoE2OGGZwRIMmEkXMILmTqGYsZVukrNBTmaSkdWAqgWvK7jiOAEvKiC3nqFCATwYFk7Fui7DDRDumgoq1fGqxylS1eHpg9NEEa9kV50opLInEEgKsaZvqhTSmbrjPnYXOzjDeftiKK6/izZ4mKINBvBQZHdaCeK8mnjiBSJo1y1I6nVjbRbqzJ0KVtswFQWTbuQx4WGMuO5SrssVSQkm5KPRZS95U8i0do+6Trm02C9xqlzuIesEWQVPxTGTz2kSBbLwSeKCRinwEvPSyME3zxUXQmCSQNUN9XEmllQufwq6tj2KwNMDeIIRYQpAh3G8hiUURxeb9yRt4YmchdPSA/J4nGpBRPKzIieJiogQZxioMjHA8ONCVRKVHlovT8Wiu1RJuXglYf0qWV3EU6W6nnwECuiDiuYZXTDCzKUaWdyguZwmap/lzlxNHQKkaOKNN5qCnateXKr8d1A5SC1ty9EmfXTK/TlJFaucSjyh+3qwuDOLdDCXc8BhO30BxBDL8S4qJ72LU1R1oy6JG2tIwiEN5tUHP4pWopFqmZFg88DxZIiVQJUdfyuQPa4Iojy6v40muJiqZ8sxJuNxMhiJ2Cs+wEUcVWi5UARfuEhze4XHUOlXU62dunAm1pUwiggwy/4W4WQ8VdwrgsCSZ8sswdxp0BDUz6RFsEx2+KTbjiIUlc84qrzOBLgRT6RVVcj+kUOmgqMLpiS10qkA7rafmlg43aPH4rSFC7S1vNSMZSLKZ6OumKUbhHi4p9zF8cTEgtg1RkOe1uwyFzVuAiFKfEGjjGnc1L0ljiZ1gJ0M2Aexw4fBxlph8GGRQRUD3zH3RBWUSDX9djNClVusE267accNXy1JwUKJWwThnASxJWYxflcUrKdepxwv+rgji1WKnVg4R6IOX7x36H8LmGV7VA0YV+s2qaYscE3e5lOsK0hURXiFM8fX90LyljtKwKwnQ/aLDxiD9NOOrHzMkgr5qI6jxsyoJOdwqNANWShOFUb6UpodMSHYvJcpPhNm2DEFfBzjJtxSFmAmmDngMacKZ1oz/RjER426OeOTF6DZ7TCvUAA951CJ0OSoQTS5jhGkzBmxKu0sTAANSl4khEshTaKCXj+lNN3vgYOxZlyCcValm10Po8LFPValobZ7ClKAHm9SGhu/CMquZIGV2mvIqtv0uhHisCIrEqup8WaHnAsGtaegiyX2IwiJwcX/MDJGW9XLlFV4PSgixLsXqKQDHY8YaiS0q7pfBA/pDfz3/2FvdEZLKTxw9yI+04QTPdCdipMkFHLFNNNhEAKUbT6AtHaWChCxokxTvLMQ7iRGW/SVZhmDuxFvoDhaGdoqjiaJYHxjGVnUJ+8Yarc4MxDpsKWm/IUF/19SaJAlKlzm44Ms6tD3FogwsTEkEagkpAnwupydB+ijRnH3U7wNYrhWZ23iUXTXT+oKryMf/qITKeFSjPeU11DEgvuCgxNBFi0SsbeWpqtYOPhaa7Fs1fnvN73FUM7PlJvXy3naiU4E75I50SmoflBTiP0yLZnw0qHuJKt4OR8tGKOqMqiK4rDf7w+XK3fBbhaBfp8uc6IRlW2DZ3dfX80T68+Cd4Mp2MgwLsQgcdnneeCarGiOzIGByiw02V+URCnEbmiFN2r03CXH78v+rGrbl6tCmn0kPmqkeePUgFEnumuj4Fd2n0wu8024EVUHwoLWi2x04ohfJqrcqd2+gvNh2Zv5DqrN1bu4oEf8S6vrwjwm9DOoIQD+kH8RieZp6ZXkrWgHquwjtigIjmOgnZ0Xq2Ay2lvFOgQvhBwbCkoxTTT53QsxS5VxFN7eByMY6sTQJsK50bAR7BV2wZQcpWLo9cOiOxh0F+vDsbTD3ytktdUAv1BoZtFKKm//BxzKo8UdjojfJBIn9FbrlsagYdJgH9SHAgtUstnvosdn1qOoBMj+DjlNd2g7cSEgeocvCfFwqMiKpW93MfRDITuvkF9qIHSgkhWlHRWKD1R3otVHOOjTJUreC+35xKblCO2eL/BeZqTXEU3u4758uEPT0FA57lSx723IwVfgIr2JvIJMZ3c6US2my5PX7Yu7e0IHFU92G8m8c8W05XfYeMRRFGpCYMSP0WLSU90noCywDysGuAg6q7w0AMIFLJlNcegGGqqWkG7tbk3SDxqtCQ6lBP0VtDJP44TRIpqy3LuDBB5F46BpxgcN64pby+6hrjBelPrgfmHSEicsVwVQbbiqNENOSXx5MqZM7JcNzYMxRsnSkX1wP93U2Zvbh8urImh5FcXz1OG1gonEWfOmU612OjfNtr+RznPWu07duN6Di5rr2aynExNb9CdCC7hX61HERUr0Ckv5Ma76c7aMQqAS9yK6CroU7ryyB93uwFWFVdArkaU+ghWG8L4aJul2+TObaKGgjPHaFXfnn5jqTBNrhkkLmKBsclkoXLhbhz3fDxsZJ5kEcPlf1XD3KNoh6q4RPAe2IYJ+hid/Xgls4h3gElq6vmRXWtXWD2ybFURfkJgbyd0fatkr451udRpEt0BVFAr5Hr2s1V0Cym7UMQYHtHwfM+ULVEZJmFdohIfpt5f9BW7mq6vx0NWFlWbtOUDQc7NNfTuCZg8DjfAyi56lf0Drpjen9FARdjTjDXiiZg8BG2SKmWeh/wk9crrjuznxnwGZ0cIPJGz/AT0yzic9Jlo81kq7xfvM4OkAKu7HTSuFkbnKJDlxLjSIKjFqDCyvVXARzCzzktW/oUEzJiEW5uYq05DjX8G7+6nsryjCpgKKsCr4+icKIf8AyIm24tLyXoYTyqe1LAP5M4C3Vp+uo2I96P13mStcuNURW5kii2t5dPWbzJW7P4XQhxHYLkFWtEEGK5LODSgkj5L2cYIK903aG+qdHQVqlQxrCm9nAVDszezL9v+Iu8iq8ICHgYp9+MsUO3rjwIedGUsUpc3Gv0yxoykKrAoPNWcxrgJ/lWL3qmqBsFFY3ejuJPXTw/xL8FAEnYuIz67gAsFmRssMzogRmeETW85gB+vql/m2EomX2CkpFA54fqlV+HXKAlUBJOC7XAQV+kfuOxYos6rSnxWQq8a9L6PuBXbS2PE53/84+nzUtiys8Ea3gtqDrn+fXpf4nrLgkXcDGzW7ZSAIK1NflJkCYFdtzEp0Jxp5GKqlaa+0PbZH828DbvhPWfTNztCYYfmbuAOnslk9dnYUfbKc+HHgP+CgheWFrJ+ycSa0qFYSlrPqQ0Ek99fhkmoJPbFfrjF2S0S/FmVeI6n1Rped8qjnPXRk/hsVhYdKbOvp9e+zUyGMwo+7qf2HynD/AP/pUhfL9n/g+V3ng13tVH/o8VY5cuTIkSNHjhw5cuTIkeNXYvE0LU0myqQ0PQzCh/avb4oqT3bTjRBrdhcL6T+Og8LgeaMONAc7cWf9wwQ+w0OGob16h5yPf2Cgf4M6U7XS/mXR7S42U9NQP7ylMAvF0LXJFg8d6pahM3ftT4mW7f938aTJiiBOe8PbX3/DVPboc85+slSjRNnDkvn3VI3fHVwBLi7el43Pv/AvsFQt8DSHjaaaOPQXh6jg8wMGb7pVwlcl2u3or1As3D7fErB/O83s6kILLyl7VHHbqS6jZrQASiZt7/EdXhWFfH61nW6b78EyQg90WBu4hc6bGX3SA1Qrsenke7wSSy831Fz1OZbfWTywt4x18JPBh1HCTafiFjs6H4MMfkdbBKmSal/cG+n+O1RFeWVPj1vYLpZ1487fmfD5GahqfrEh8VtUrTXzNebjiqaWYs9/MaCb6wxUzb7YDPEtqmxG3TEhrI3oCk463zBL56WqM2rMbgSFaF/OGo2RV6u591c5wpnlgOq0y7MGbYdVvRndCJWDqaGwY9hPkrZWVAES3lTrLFT1SQn2eB1tzDnScde+XkG/4uj24vn24uIOSvXtO16ckiRoimndFWkNJGjWHl+wNfduxk5TLTaZbgLTqK5rsdMKjwy+qdkDVF1A55S9KhQeRuUbWP2GRzuFwnLUabUu29jUWK4trwq1+bIv2UWHnlm5PJs7lg4WlLUKxVnh9rr9MJIqRecedFrV2b1QOD3IzIKHysu7/dr1YB2jFeEfYQr0fo9XYv15iU32K08Rdv5gM+nSI73K1w3XSAKLhSJ/BlL17p6oer/ga0Devc6eprg/22K/szRDtyyNTfb0YF7VOGH7UTa/R9XcmTCI5vUtdkM0BVPcwaaPO7/zY0htcDXUFrPCnXegWrhFqm7f6X1baITuBZ+rZnc30zdDc5jGXgdI1QleOVR1vyeB7j5IiHu4p+9ipX0OzLrzt9IYLZs+VfdiW/CQeOWa8Ttx1XQxuu+hvXiaMFW3utKreVoC2XclcNnkaIxQmloBkzUCaVxG2ieIqlvxGVxlThWphk7hXTi9F99n0Z2Y5kQ6ntSBO1Wzv+kxha93E+ih78BSWehlHD80b/wiPFJVCeyx0SKq+C1x7sZl2cVl70RLVkWXWXdjhDfGcaFCn+S/+4E0HnHJVwsXlbb6vCa/6lV8qlqBzZ+5Drygd41QDX8Mz8k6RHiytaz9IN4NBFcefPwzaHYJeCW6glVv5J1Ze/le4JsMIFV2wBGpElVX9G5WWLaqIhwf4oNF9rZwnPapNDmh2o8WdH+eh1edQDRSDqmvJVFJ8+qPuKPmDKiquFSVo25yl9HzykSsNScUORixW3nAk5Wls/gWgECzZdsxu53myL/ULVJCVM3FL9cCVAX52J7fgFsnRwyTM6e2sKyExeiLuoWPojsTVdfi4pQLR+JGIveuUASJqrJwA2ZorzyqyCRwcM24M4Wn0RGmOgQnsKtv5ImGG6bDxjnweOVzUFUVPJw5CJIt+AZV6sWsUfPideF2RJ/3CssAr+BEz0bVyM1YM9kKenwVDbdelo6aqYSm1oHx7bnOM69oowa8deVx4QIu+lB45m1Il0Vi5LAwdlw8XEFxNe/357eO6g5SBQ371EzXuXd5vbNkU4yGB2+qRkFIXVM1Ub0PXjWZiPqWDryKWwgwenYGuyr6zYuwSdaqVlvduW3buJsI6IPLa3DMn5eOQBJVvgkrXxUKxRrsh+EaK/tNk7US99gri6mlaq5O3zLTUPYLvFxlXdd0U9Zpbx2HV/UQHj/L5o5msRsDN65X78Vl2zvWal7fr4rjedOdR/as1x+5r2mU6E2MxL7G0XB19V5ri9s2OY6txgxdkS2mWQbzw8XujhkG0+SJbGia4yE+miptkfRm6UYIH6H0x3lRLQu35PJLi1rsw6PKKPWsl54Cc2lxnBh0xJocu9JA0a2Jc8J2GsWJeOw8CCjHhy8vaoG99RaLOMNb6a7X60WXmG+XDC0uz5E6BD3XSWFNQT0+S5M22p5ybNym0f78Q326kKMo3t+Dukw5R58p7MawtlrVhqOfHkiOHDly5MiRI0eOHDly5MiRI0eOHDn+P+D/AKDynu7ZSq/uAAAAAElFTkSuQmCC;" vertex="1" parent="1">
          <mxGeometry x="700.7700000000001" y="530" width="75.95" height="84.51" as="geometry" />
        </mxCell>
        <mxCell id="0Y9DeedcCKoHoYVFYHTG-36" value="" style="shape=cube;whiteSpace=wrap;html=1;boundedLbl=1;backgroundOutline=1;darkOpacity=0.05;darkOpacity2=0.1;" vertex="1" parent="1">
          <mxGeometry x="880" y="120" width="160" height="80" as="geometry" />
        </mxCell>
        <mxCell id="0Y9DeedcCKoHoYVFYHTG-37" value="" style="shape=image;verticalLabelPosition=bottom;labelBackgroundColor=default;verticalAlign=top;aspect=fixed;imageAspect=0;image=data:image/png,iVBORw0KGgoAAAANSUhEUgAAAYEAAACDCAMAAABcOFepAAABAlBMVEX///+jJCLcOCxJTE2sJyTgOS2fIiE0ODl0ERP09fU4Oz06Pj9GSUrd3t77/PykJyXCw8OiIB6dAACoMzLJysrFMCjQNCrcNCdAQ0TKMinYNyuvKCW0KiW+LifbKhoxNTZ+FRbbMCLZGQCrPDvaJRPaHABPUlPt7e21trb0ysjxvrv77OvaJxbk5OSpqqrU1dWgFRLvsq/kc2310tBsbm/qmZVcXl+Wl5iHiYnoioXtp6TeRDl/gYHle3ZnaWqio6POmprEg4LfU0r54uHiZF3pk47iZ2C5aGewUE+uSknYr6/r19fgwcDLk5PgV0/leXSoOzq3YmHLPzi4ODTlysrAe3pv/+vtAAATXElEQVR4nO1de1/ayBoGBdJcQGRRUlQo2XAREKQioKK0Wntxd9vtObvf/6ucmXDJTOZ9MxNBPRaef/wJySR5n5n3PiEWWxlazfPrz5/fX1we66sbdANVHF8UnHapUigUKiXXub1svfQNrReOr123ssWgUHJue5mXvq11wd19mxf/jIS28+P4pe9tDdC6vKoC4p+i4hbON9roSXH83ikVMPl7KDmfmi99l78s7u5LkPYRtJHrXty99L3+gsj0bqslX92EM1GpbszyinF27bQZ7VM5F7RRoVTi/3Wuz176rn8ZtC63HH7OF76TD4u+SiLyLp43OQoITU5xEySsAsefAePrUmt79qNKvymUqlfnRPHfC5qJEPN+458uB8z4Fore15nelTMVP4EDWoSNf7oMmt+dEiRWgnZvdszZ3O3pYYdu/NNH4uyCM76CHgr6Olf4wQW3fb/xT6OBRL5OmMNZcUsBBX/mhBxOzfL3zUJQhyTyrZCQS/A0z2XBcqHtvP5ALZ3v8h908+mVX6R1XgiLfAvtKuzf6FzIhiyEq1cdqDVMwzTshv9BxzBMzc6u9CLNT6jx9eTvfmriMry7r0jSFsRz/fFqA7WRtk1Rnsw/GBv0f6vcWdkl7u5dN1SVFD4dS+bw8bVkHRAdtvU6A7XGlABCQRf5YEnQxI8070aUudO++nR9f9k8vmuJbLTuznpX0kFKzudXGKjZM3lvW/3pB5YV+GApBBI/4RIsVCqltus6zufZ2a2z5uX99aeiW3VdYQ0kwYVQeW2B2sl8xpM5H/xAW3Zwme+Jojqbyo7bLtGSsXhEMrl/WExCJJRemX+aNnyB68EPlvMvYN+TzvNSqd2moq1gq6NQ8EbotZHvk8W9ROLNm9QeyEGh/ZoKCU/FAOh7Vkpu9er9xXmv12w2e0S/fHcdF3T3S+d0EDgcTibfHiYSiYN3b968eXcAL4RK9ar3SjpdnoYByPck4e51T5iarePzW2ipOC0kHE4WjxIePAbe4AvhteRPBQbq5WXtAG15EERaCSms0JKAcPynWOyHsIiSW9705xggSBQhDl6JWRYYiNWW84Vg39O5CBdFsxA8yTnOVIPy3z9K+GAYIAvhCFwIxCzfP+YhnhMiA/n5IijnI4/WunAh37NQkRvG90G1dXXOkcJOf5EBgt19mIOt//NlIDIQG5a9VaANIw92gfierooQ3gfPZf5P8tMfZICYZXAhVD7Lr/2SABiIZbc1Q2MTRWpobSGJg9Kl0umCLfCn/95BUP4QA9QiiGcXrqI+yPMCYoCY45OT6EN9xoIvV805R0sxe3FR/iADxC0CGPhv9Ed5TsAMPApo8qGt5hWi0bMXf0kZeAfHyMnDv5d7rKfGChk4Ai0hnYW3KqejAfDWNAcRzkDqLegMJfcTu78v91hPjRUyQISACLD0Q372cdD3lC0EhoF3h1uw/LeOUvE1YmAndQjmKykFtzJTcO+EE7AlOEQLBpDp78k/FV8rBuKpOJwhIIrIeR9SwmpdlmT1l5lQi75XNGUAm/40e0Hlv2YMxCkHyDqoOMVzkIS73ufQAmZAsIuFQBkgURh8tWTxcCr/J2Sg3s02Gp1GIx/FbyQndTqdRja9yLnBDOgndWyIdLYzmXSywFV3vAdOxY/gLM1WoeRWby8u5zWwTOvurHn+viTphShUgutjHh5gmQjK0sFc/lEYaIxrgxHboqBnh+OBZQ6GgjT07NjWTNMmME1N63dUWNAbY3N+kqENhtNLQQx0b8pGeQDUKOudvmZMR9DMcSOwZnZmj5xKHWJTk8rTdZ2q47putUrrL2HdE3Qnn3P147wZpIguhCM4LU2/3EssxB+Bga5tWpZl+/Xyxk3ZtGnFkP1wKrSxZlrbDMgRN7IcTrfPn2TZWq0BM9DwshJWORgUd/tlmxnCMrUxx9LO4qFTqQRiHZVQoLVKp/LponfspTPE1t0tRPl76j/Oyl+ZAb08ezZt+twdk5WXxrQtnPQ1TvwzcRi1sLp6d2CIJ1mm3YidhGTmuJV1ciNe19IGDPM77HPjykgie9dx6bS/8xeYpGuOk//+YYqXvzIDw0XBnJZFupbJP2p5obeHZUD+U2mMsYKKPoZIozAH2cWF5wwMFtnpMTPGBL6uZQwWinOHf/IwZQSJvu1W6bQ/E7J4UJkYFH/ybUKQvzIDi6T8tpkFntactU/VBwFqWNgWbA66to2eYzFfCRUa0x/jBr2uVR7rIAOUhATmGTGg0756e02mPTyDpI1CM/lvBdVPNAb8B7Q7I0N4zFmiMm0ic3kuDMgadMph5zAQqpT+yhvgHJKb0/IIA3QhyJRR4b4pTnsGx46S/AH181gGyBOJDzldA11MA/kyEykYapJzcAYWdeJ+GAGLy0IMUA4OQq1y4eoyLA7JKKwAon4OMPkTBtQycyHKxXtE6pCmFWQpUDBRJgBnoCEuSh6WjTMQl1rlkhPS8inUbUT5b+3B6meG3IcVMGBTm3gSlCVxXm0ruCrKfNNzQ50AlIGMZHoQmJT4XVwKEquM9z43HZn8cfUzI+CLEgHhDNg1cnsZXtjEGx+Mh8PRQDM5FWHZ7JpOq9qAMAY6/M1ZNCILEG9Td/nnaZgkwq0yiZehJisdrZtNxR+qfih2FVcAzoBF4tey52ZyutjS+tmZpDP5kcZ9xXQ4ZIKSIrxpJCA2g5+HMlBjD7a1m0mj0RnZXIDhMdA6DaVAZpWh3TBo2c2Tv0T9UPl/VS7TgwxYZrnfyXc9wXC62Ljh/E59wvr7hh/LjngLamvjbD0Ty9S7kxoQoSEM1FlFpo3mKRISIftDeFoopn/NhWiiuDRWLrglvr+nF7IEmNwbSsDf/6jKH2bArDUWyjHDEqAJRXS9z3xvzs/idZBVHjIKKi9GFggDWf9Ay2QNPROdz/3WP3clHMitMtN/3nJQ8UvVD1V7/4myp0NkwOY2sfgxMxEDtMOI8frteRrphksEWWn0jFAGOv6l7UCOsFszp9z6U+LhNwkFUqvsFi9nfH5HgmG5+qHyJxdxC+fKGXdxQnI5Bp2RlgZHvqL+7rLqw6oJ99INOJkIA5MFA/ZIuOqEbnjaZlfG8duETDohVQQK+uoIapUvYR20KL1ISJ6tKdWeuSADgcTkhMneYFlQP8c2i6D7bCLTBiZDwFOSMmDdAJdNs5v+WueldlLqICoshOpt8w4qHPOpf2xsVtGp9swFM3EBMW8vhAnMwzmy8zlv1ei/dVa+8MLJcxQoaKFx+KI+nxW7FKap1CqXgBUQTP2D4wbXl2LPHM9AkICuWilxPOfJkzcjOdY/4jBknSWEgTxzb7bRwTva9Ss/g0BUtYoyipTBVlI/YgpEsWeOY8AM7mJkVHFYM+di1nvuOWOHQfXhYZutQsAM6FxYbWujPDIJ+ATCKpQRN558OF/9cwyo9cyxDIhd44uU/bYRWo+cLwKa2c+wxhvdn824mmhE1udDB9vUrJtRQ7wRwXMR61XgQlDIYCOp/8BAR9BAycPfIjNQFurC/iy089kQLJSKzWkua4BfWKgPiAzkxdwSCdU1e5zlNRLQtKkiOXkGm6h/GZOYVUkWE7uRGRBtLZuTM8PgF9r0WIMxoCFt0MNgjQzIjd7ASXHL1EZsaRTsmVNURiEZbLT0wp4PqZ95z1xkBgxBZeTlyckAyBiMaMNUFzM2yoCOFoZsbeDHjTtI+4hKAIUqo1njW/ip8BoiS8frmYvKwNSV5JCNzICZ9x0jrtoogMn64BWaNF4aYgrFeM+c4kIQBSl3f1CndrF0IjMAeDsNSYlKBFkDvv0EOAWvHLKXMg0k8hbDz6PHWc8c2kQozyTwnpECb5j6YamLzoCotKMzQGTnK2/cF6XwRRu2mzW0RUCbLBhAXRJVqxw/2i8mKYpvD6XqH4snOOoiM2CKb5VpRNVCVOaDlTJAAjwNnwfTZC3XMwcJhm6GVFBGqXgiQf88Vv0k+cxUdAbEvE9kO0DfinKzSi1EoQ81sLDjXfAkptYzpxQrKwBXP4LZXwUDwSRmOCy7TJcRE0cZIRdWssQzZDo1hAQv4gj2zGHKSMEqy+SPDg5Y7lUwwFWpLBkGE0+SI4aBkFeWqXijDE46N2UDKHIa2Qg9c0qxMi5+XP2AedNVMBBuJRAwCW075G1ZKhFZAOnsZGwavFWgi0DoViGywjwjhRoXJn9l9bNKBvoqyekAsqEhBnDhaG/26PL9ATQdC/bMoelPlQy2+nAho62EASbRHBZdcWBVl4H2Vatk5hBkJiwHxInGeuZQZUStchQSIqqfVTLAJIZM5a3uTOIZT80pZKdx6ENmnY3CeuaQ9GcUq4wyKXOvIvfMQQywLTu26kt/2OqLUHEAjnnM+4WGbAXzUT1zilYZzZ9KlVnup5q4JAywlULVd85wPmwZdIf4vDPeN3pj1cStVN41/PuuhffMhVplmTLCvE/5GtrN/aUoLgkDbJ3KHAMHQOB63QxAgmqVer1mWjTIgO6LyZfUYq2cpGcOt8qhgkTzffLoLvftD0VhyRjgVQpMgd4ZjSdsHppLZli2kKJOB0JthIF5eiOwm42iztgBsjT1b9KeOawOgGewUfOrUDX+7VE9czADXLHWvgEqtY2ybZOZymZWt7mOrWCnndBWDTOQXfxvDgKqrM40E1uem/xwmgsXSog/mYQajbDSl0rTSnyvEuEHCmQM8A3MluAR6eOZoNhNf4HyonHDOKXpvpDqgBlgek8trc/cnD5ku1Xnd/Rw+vjqfFAZ4aUvlZ45Sl3BLfRiapAywOQ6vaO22d28J4ww2NfzBWrsllGb5E/qer3bGQB7+2AGuDEs0xx38t1uN9/p8xHZrLjduy0oSAftZKcvUkzNcbAHl76i9MxtbbnfV8XACW82LVsbDDvZbrqbHQ5YYbDRlx5MqtJmeE2L1L0+DCSlyRCmIaSGpv0dvXa7oJZxwL3LZHF/7+joaG8f3DKsEkEExi5dr4gBUW9bdEe9YQaEwcW/3eV3cKgN4Xm73+dtbktW570KDfyFSs9cwHON3LGFMhAbKpUJypyVbkSgAPGFZNv4KLx0FbvtVLE6H7Vn7jFNK5E7tnAGYiMFCsxAmbmz/E4+fC/xHNPUH9+xpeKuPEfPXHJvFXmhBQXSUo0YKyhvJ8ZjYmQ/vU/AdF+B0C6kVp1X2fWt5n0CKypZPEitkoHYUCLOMtBWmpXuQp5h2lYE5YW60B7nBezZ1oQdYAKqpD9Veubk6h8MHGjHkGJulEk/h74lJW+EyMKGzz2p4WrErtV8BryAS/hBghn1GI1WeV6y2IFeNrl8A6+CSUHOT+7H1Tu2fK9b7BrloI/RV3uUR1guc1KGeaPSW3ibljU92E93sjnt+hgcwzL9d7rseFuHIBEu0cCr0rMIGvRFjK3IgL/7Qpr67N4AfSOWXR6H9CbqI6DEbpf75BR93oylzQqgi+hb4yuiJyMt2L1oGdtMcO51bB2Ak/GxIYK8ZxGpGjPNvooMxMbT57a08CXgIT0yDEaglmUb1kRynt6pMYEYPcUeTilLe4rN8k1If3or4nun9Ua/bNB9/BS2bWhjTuvNOrawJuYn65kD5M8uHFUGYmSVE7HUFN8a15307bKmGSTCLdfGHaXfbztpjAY0Ig6eoo9MjXtJ16hsmqa4ZZYi0+2M+oNabdAfNYKlz0XHFuzmK+0BSCWO9qcRWXGfSFFaNgAvxO80VmYg1h2OR5F+hS1TPyFQWDMs9Hq9LmZW67wFqWcb+ei/v8F2bMFTU80qp+KJA69pTkYWrH6Cfqs6A68eO3L5qMXKCkDVjzj8mjIQD1FGK+mZg9UPZLfXlwHczV+uZy4OV5zRsHmdGYij77RZsmcO9D6xsHnNGcBzDqvsmQsda+0ZwCsBkTvZ4bhZZlhyH19aMM+GsI6t5a1yCgu3JTTmvr20XJ4PX8NaVZa0yuT0yOqHYjf370uL5RlxJ+sWQq2yQs8cmHuTd8xF6Rj6BXC3I+kWQq2yrGcOVP8yK7Kbyz28tEieHR8kjYuPiJXhnkW5J7WbO/3w0uJ4Cegfc6ePe9Mc0jMXBwhTMOC7uZ31m/8z6B9y0rf9YVZZ6JmD3FiFmuVp7tufLy2HF8XD7zJlhJXEuJ65BGh+5b7Tae6Lcsf0L4s/vsiVUeoILGkmi2+PvJ456FdOVNRP7q//8x9jfSa0/lJQRui+MLBnTsFtJe7n2qp/AA9/Kygj5a45hZL9ae7nern/cigpI6WuORXvM/dxo35E6B9OZcoIyfdHVf/xh+h11TXBn1/lyii0ay65L/c+v6639ylD6+OjQwQkUOOnf+6j2k9QrzMyD7/JFwLgGanIf/fDRv0oQcUq82FaUh59bdRPJChYZaKM3k5fcpakP4Qryz3n/t2on4hQssrxQ4IDWcPcRv08EgpWOS7tl9uon+WgkLiTyv/fTe5tKShYZRy09LLkr4lvQK2y9DeDsOm/5qn/FULBKgvTf5P6Xy2UrDIj/03q/wmgbpU3qf+ngppVJt7nJvX/ZJCX0zbq/8nx57cQZXS6Kb08B6gyQuT/18b7fx6Aymgj/+fFQ5xbCKck+t0k354Z/3zJ5U5Pd3d3T09zuS+b6PdF8M+Hf3/+/PLxYeP9RMX/AEjxVpoqS3bLAAAAAElFTkSuQmCC;" vertex="1" parent="1">
          <mxGeometry x="911.22" y="150" width="117.55" height="40" as="geometry" />
        </mxCell>
        <mxCell id="0Y9DeedcCKoHoYVFYHTG-48" style="edgeStyle=orthogonalEdgeStyle;rounded=0;orthogonalLoop=1;jettySize=auto;html=1;exitX=0;exitY=0.5;exitDx=0;exitDy=0;entryX=1;entryY=0.5;entryDx=0;entryDy=0;curved=1;endArrow=oval;endFill=0;" edge="1" parent="1" source="0Y9DeedcCKoHoYVFYHTG-38" target="0Y9DeedcCKoHoYVFYHTG-31">
          <mxGeometry relative="1" as="geometry" />
        </mxCell>
        <mxCell id="0Y9DeedcCKoHoYVFYHTG-38" value="" style="shape=image;verticalLabelPosition=bottom;labelBackgroundColor=default;verticalAlign=top;aspect=fixed;imageAspect=0;image=data:image/png,iVBORw0KGgoAAAANSUhEUgAAAOMAAADeCAMAAAD4tEcNAAAAkFBMVEX///8WFhQAAAATExEGBgAQEA4REQ8NDQoUFBEDAwC/v76zs7P4+PgjIyD8/Pz09PTu7u7o6Ojd3d3Ly8rj4+OioqHZ2dnT09NVVVQ4ODaFhYRaWlnCwsJpaWgoKCY2NjQbGxiRkZBiYmFNTUx3d3aAgH8tLStFRUSrq6qZmZiNjYylpaS2trY/Pz6CgoFmZmQUTKA+AAAPuklEQVR4nNVd2ZaiMBCVSiC4sAkuKOKGiNv4/3834N4tkAqC0PdpzhxpuCRUaq9Wq1rohmUNveNgMpueXE26Q5u709lk0PWGlmXoFT9DhdAduzOYrE6aDDEoI6r0BCGMJv/NtNNqsjvazh8k6nSWs/V8QYHKCpGyQVSZQnsRrmfLTr/uh8bDsI6bUztZuVx2P5gql1V1g6Nj1P34fFj24BwCyCqf2DvTeFOHq51t1U0iF95kGgJVCvB78KTgjydeQ79OY/jPZW32CcErlPivzDej5m3aYbRiIGO/Px7iXUvHh2HdpH7Am5woLYvgjSalp39e3cTuMDtrlbJSCV7BqLzumnXTi+FEW6BFpCgGhMFp4NTM0NqN21Us4RMM1rs6WZqDkFXL8MKS+bu6dqwZnUCunGECGcJBLSw7Z6h+DZ8sp8evM3TOi5IPCw6YNP3ueWntJPgqwxikTfdfFD7e+LtreIMK286XFFlz4rdrYJiAaptvyB7d8+FzvbsoCGjHXtUUzf3ie9I0DUydVGxfDsclGE+fQWHbUYUMe5Hcrko1FQCFQWXGpblR617EKxQWVHSKONOvn4lZIDCuxInX0aBuai9oL6LSj0o9qlme/oYs70o+RHo78h0TAw+FTUqVPOYMGiBPf0GFaYknpblq0qf4BIxLE69WQynGJKcliVdn21SKsTowL0Xn6TeYYkwyLGEl++smU4xJrj92DzjrumxFLKj7IUnr1OxVTEDDj6SreW4+xUS6fkDSnNG6nx+FdnFlQJ/9hVVMANOiuuvur1CMSe6LkYwWzbCIMSDqoAhFb9E0SyMPCuuKU3TCZtmLPDBNWOEx/sSp8QqYCrqX9clfoxiTDMTkTiRx5A1R1S9bzarK8ZgR+SBC0dHy5Q0DSZMuKX2lpavkPTtLbpXcMV9EKERAczU4tgZbj4yeYY2i/dRdVBxLVkByp5PIduI7Dqf5JOkW/UnqO87qwPLxNkbdzbzCeDKDMOiOHk8+4EgJtsc6JG2fszTwanz3nO4WKllMGeAU9V8FicPxYisLZNaS4XI0cbb9fclwcio9hYXBPLB/32jMuQvTcLt1zzs2YPJ+0XB5KjVSQMDdp7hquCo0bDAUbZ+npsLb620lmdV7WlrwlQD8S82+HvL8vKqG2K18X6rsZuwHaxLmPgIhqnIFIbn51+AHGYqZueZ9EnTNN5gHXP8NBJk+eHumpjzD7YBjqqZpc9d1576mqfL1eE15J4ytMteit+HqX0+hnwWLJ1PjP7LLFtDG0X1+lkRhV3LzcbAcRB1vNBz2EwyHI68TDZbB2CW3moHHRSqEUY7cOHA9E0TiLWTAfU9Eys146k385DFUORa0/mm6GXT6eWeW3vcOm9XJj8UoS3gyLciVjJ7GlWywyqdoL7haKAnTRM7r3zgDBXY6LyMbq3aYdnc328rxddNO/i9HLnefcRbBCPhOKrblaYXmcjyx+6KJNGbfXk4nvKscrtCJxc4q7690EBUZbMx3ghUN8fKvM1b8VSA0yvkDa4SvkZ4rTwLKQ4Dw27Os0y1GF2MY06DW4osNxuULmZakvsXonBSlLVWGJYYjm2ctZMQwGudf4CjRXfrVJuJz/iscswRjh6A8NH+Co5ouWo0pLtJYM8cJLszEtmlKtY20/+isVrmK0FIugDSFCRukoqs6K9r0GTKuTcfvFw+x/lKGMNCqg8lxzT2gyu9qNe5bjiGXky5SEEPUGZ6AvnlkLJ436AGC8SZUBr4n5g62/u1LOOId3u1Cob6S0MW7/34fHz2+bfyAaOykTIjEmtq/hKPFN68fkE/11V3yfVZPEOXnZhUK/UN9H+RI6Dl/Sh2B1xNfO6uJYWxZiXCU3ddLHaGeBTCtiyLCpfYCQl9POaGtSqf1KTqGUFYU7F+uPAtcybZ19g5x0Od48qgvKQLDEz60RlKV3e9hJJDZrry4SbsMfx3f1V4xBgLxsadfR0QBaK9q9crF0DGeufvTzu6iw0TruZLMc5J/ASMX/7jzu8tD4GBt171TE/DjOg881BX8ycFOTej4ouM1lkdYGS+OIcfJ/kV0BBblekVvgRVUbN2EZYyfeIUVOyq7npDoz5HIBfInK0EHvSy3DzLCcmTllTd9CKS7O+F4dZijdXmW4WCvAQOsCGkHyc/Rni7Fb06TOytEunXYOjkh0Z4uVp9J9Q6sm1V2E/vKw3q6soN6NeCI/MCIlpgQXV7u6/3XapP695kacmVo4kXEajlsXLc2/goda/LCXsdkLt1+3ARV9QleKusdielhIjU5ojSmod0FNtJbyrZmy+In9Vyg1BrmeEcf6btQfAvtPa43XPUOa4r7IInab42Q3y6dNUMfv6OHSmKRLtm2Hja0uuff96vABhPhiD5Ms7JBagNWZY1VF6QMJqQZ5vETXaR9BXt+hvyN46IptuMdHaSwpAEqxy6Guvh+L8J82BrOKcxWLaRlpWr1Ox1/AstR3rbGuKP073JU5y0Xp7//YY5+y0X+8s9ylKTWHGk9avWGq94hwHGB+x1pnlxFZ+q0kL9rHke8jxXNUf2reg6eoyTXmV2VhkgqneOf1cljjj7yh+2m2VY7dBQSez7Gqm2T3HJJ5hye4xzL8dyE6QRPYErDrli0tujAQdP8Ocjvkcyxdockn5o1MqSPDdMobmuGfR0NU1hH6MjVuPUPG32EZjkCOtijI7aR0UkdgO4T8RVgYwES/MNHymntGVav0NG5YbDD54EoWpOcyMYcm8YIUctG57pAkwIe/TY6s6PT6iNDrPGPm6SVo0puL6AjfPaARP9iPkBs+DoC1QRK2JxguYGMKCZJD1bLwL+R/N4CX4XH79VwAxubLR0ZDJCS6s7GnJB7tNEBm/jIO6Btzeao5fgKuGsyGTY2kqQENGWzemhfDpESFXSEPk2l9qwZqg5eybl1ULHwWb0EmmFfOWiJc69GESh9wXXEqhx4MXnXspf4K4jWBKljoT3kF6sjATbrIUE7pe3a14E/OB5Wr4VWb+suuL4C7eW4cLxJELxgrbdQ9woBpSX5uG5XCRVOQt1npCcyLoWeb1fhyyWk/B5D30BPZKc+84odbL7r9bJ6xY5QOSpR7we6UIlnrNHVGaXr8poY/0BidNwg1lCe1Vg7N8TXzCV48SV66ND6BbS2yrKe2DQRQp4CUsBUub4eRIu5KiA6n+mHMTgRHLbCZnUIV+FRGz/axAmdHlJSeb+qwSWwEp0C+6MiRUc75x6Xv3VuqRr9qWjre2XxY7cJ9U+4oL39bp2ANxaeCdM+//gLeG/5A9T/ZiDr6IuPvfmldhpCTUmukGlV0zTf4ARU/PnetE5+G+R3EHA737BCep1CfcFh+Usu2mGRTvFsEVRvT44CrUh/d+Wt75aemSahKjmNZxUqb1IbiZcF3dnItFDb85SClGN60852exGGUs48ABW0yaiqHdsbbbSi7evZu+nQS/MGqDCL7NHIPgQuZPYtUWAeVDJg2+gGYeHW9YqfolSnBdjZXVHQ9c4qzGzPKlP1tByWS7M32rsqLT5OAtJy36x3qUMWD5/x0Z0dgrQm8rdfygDrnV3Sp9nre8tkXsYHQxaUVC+pnuJnpY/uXBHAP6Pr5qkKDLT1v8j+1O6yvEGwXXw69wTSY2xp7c3hkdEZzWJR7Kxy2wmrrE387WrvOUaBBdV1a9gNpnONtVFNi/OgZNnxKb5ZAptXU9GyZ5yIEVFkCgD+NNh1bLzaPuwcNuetWtoUoswszX6K74qw6fOUNwM/mKFyJMhlGALe8RNdJyOUwO56eynTHZNqfbTD3aNh0groAeuNJSxnPsRv6AN0egkGOWMRrNRJgTI8XAbeKTY7kX2TBX2UIt5vHgjLiSFm3AjW9/066pjIeANzxQSssS1vZmiGUL1ieEp/fPpj1sMREalWqWhdj13ayDM5zDUUDhnfPX0cqXp3ZyL21SWdQgi6qOMsE5weOEbWPnxMHhyGMB1ygweKL+4JsYWdSulIso5ykVmCTW8u52HI4HDkGQO0wBBY/VzOQvLz+rLalJP7abeMtTruhIlCETyRgHY2EGl9maks8m2cdO8w6fNGvqisiNbaQ1cX5UDxEdGYZdaOgeD+LMmryFWaWUqTdwTQnbhyABOE5tHLaoRB5NfjwJ7nkCzYMgnbjyEHDDcCMnM4wmupjmXZp8y3TuRinqy+QHftjDtj+1FnHX9EeiykPV5Hw8zpcrJbzPEqkPKVgcf3xIOZFVd+dkIeAIWoF6Q7lBQoWJuFz6XNAGYu1Q2jLGfrYyqi7TMWtnRv9b67GGgzr5jPo/fhxOJ3l2oOsgpEHp3J9djgS84hc6NJjDJFUVWiKpf5gNvlqLC7Y/CZYBVruZWhCSiLh2nveAmTlSRpq9k29LUwDOendRB9lBkpMPEgBW2xEysrek5/vil9wSQ66xlD2xtsNp3Lx9CzvcJ+q+MnWoBwU3EvfQ7k778TqXAVMPba11aXNfynwWJX0NeKz4l+R4Hq/ij9lPxdWeYcrhMpN8DYJcewD0yGor2vPuEIBYrCN6lyPOuQ7U/D+SUcaaxCf1U0mPUBx0KDGsx0ucMyrDNzdBOn8T8KZ7YU5wjTQjd10qeWQ4V5K4U50qKVxP0wVbjCrLIMpKIc2aJwqLfjp5OsrIy+IEf5kyqpo5Z6gsC0ouScYhyVxUeZmEeW6keCxaGStMBCHDNmBOKxa6eSVOB9JnwJKMJRLXIw/oC+S884UKk/Kz+lowBHApPPA9iH9O0aLyVsB30zxYoyrKIbWZyj+paFUwg7kuXbZeCvll27b97eZM+whl53F6yLijlhjiorhWJLH2QncimUSuF2vQouWI3Xp1ClULglhChHBZZlZVoc8xKdkunytA3X+fFMVsgHsxMEObLPDo1f9w6FKge+xJFppVYoeHORAqDvcGz7Jbf1c8b4nK6vcCSwLr3g1ArQKQnf4EjouYLkWWOZnRhYGkdsLbUC/6qxC47ptlaJHLED00qWNq8Y4WpIPuCIywmAcYX5+uY/TB5bxRxlCKotEzqeEIUkrEqOdF75rJR+wBc9tGinHT5HBWZf6FFgHHxuxkNVHAksdt+p9OrPWP5XWRVHRlffazQRrXOXshqOJLZXS2XBgbOEHJZVcCQU9t8uYxutlEwJWz5HQuVxDRXCemdMsmLqZXNkbH2spweTFX+WqedIyRxlOB3q64ViDOaQYo6UyZEwCJf1dijsRePF23dZnOObTk7l9aD+Br5W9/xLxpZmW8WydBo1oWNPvGPtGYMXL2zxBjTOSx50vEnp1GtQH01rN9bu8od84Jx/DLGWQVsvm7GET5jexAVQVAU+abGjB8nfIADhv07TGCbQLXtzmrsb+xO3bs/+587doOOUWIX3H3zuIrdx7RE0AAAAAElFTkSuQmCC;" vertex="1" parent="1">
          <mxGeometry x="1293" y="315" width="87" height="85.08" as="geometry" />
        </mxCell>
        <mxCell id="0Y9DeedcCKoHoYVFYHTG-39" value="" style="endArrow=none;html=1;rounded=0;shape=link;" edge="1" parent="1">
          <mxGeometry width="50" height="50" relative="1" as="geometry">
            <mxPoint x="520" y="280" as="sourcePoint" />
            <mxPoint x="910" y="280" as="targetPoint" />
          </mxGeometry>
        </mxCell>
        <mxCell id="0Y9DeedcCKoHoYVFYHTG-46" value="" style="endArrow=none;dashed=1;html=1;dashPattern=1 3;strokeWidth=2;rounded=0;exitX=0.75;exitY=1;exitDx=0;exitDy=0;entryX=0;entryY=1;entryDx=0;entryDy=0;" edge="1" parent="1" source="0Y9DeedcCKoHoYVFYHTG-12" target="0Y9DeedcCKoHoYVFYHTG-31">
          <mxGeometry width="50" height="50" relative="1" as="geometry">
            <mxPoint x="930" y="570" as="sourcePoint" />
            <mxPoint x="980" y="520" as="targetPoint" />
          </mxGeometry>
        </mxCell>
        <mxCell id="0Y9DeedcCKoHoYVFYHTG-49" style="edgeStyle=orthogonalEdgeStyle;rounded=0;orthogonalLoop=1;jettySize=auto;html=1;exitX=0.5;exitY=1;exitDx=0;exitDy=0;entryX=0.537;entryY=0.003;entryDx=0;entryDy=0;entryPerimeter=0;shape=link;" edge="1" parent="1" source="0Y9DeedcCKoHoYVFYHTG-2" target="0Y9DeedcCKoHoYVFYHTG-4">
          <mxGeometry relative="1" as="geometry" />
        </mxCell>
        <mxCell id="0Y9DeedcCKoHoYVFYHTG-56" style="edgeStyle=orthogonalEdgeStyle;rounded=0;orthogonalLoop=1;jettySize=auto;html=1;exitX=1;exitY=0.5;exitDx=0;exitDy=0;entryX=0;entryY=0;entryDx=0;entryDy=30;entryPerimeter=0;" edge="1" parent="1" source="0Y9DeedcCKoHoYVFYHTG-28" target="0Y9DeedcCKoHoYVFYHTG-36">
          <mxGeometry relative="1" as="geometry" />
        </mxCell>
        <mxCell id="0Y9DeedcCKoHoYVFYHTG-58" style="edgeStyle=orthogonalEdgeStyle;rounded=0;orthogonalLoop=1;jettySize=auto;html=1;exitX=0.5;exitY=1;exitDx=0;exitDy=0;entryX=0.5;entryY=0;entryDx=0;entryDy=0;entryPerimeter=0;" edge="1" parent="1" source="0Y9DeedcCKoHoYVFYHTG-24" target="0Y9DeedcCKoHoYVFYHTG-34">
          <mxGeometry relative="1" as="geometry" />
        </mxCell>
        <mxCell id="0Y9DeedcCKoHoYVFYHTG-59" value="" style="shape=cylinder3;whiteSpace=wrap;html=1;boundedLbl=1;backgroundOutline=1;size=15;" vertex="1" parent="1">
          <mxGeometry x="520" y="490" width="120" height="140" as="geometry" />
        </mxCell>
        <mxCell id="0Y9DeedcCKoHoYVFYHTG-60" value="" style="shape=image;verticalLabelPosition=bottom;labelBackgroundColor=default;verticalAlign=top;aspect=fixed;imageAspect=0;image=data:image/png,iVBORw0KGgoAAAANSUhEUgAAANUAAADtCAMAAAAft8BxAAAAwFBMVEX///8xYZIAAAAxYZEqXY8UU4oaVYsmW45BQUEeV4xSdp8qXZAiWY3W1tbz8/Pq6upgYGArKyt0kbG3t7eurq7y8vKgoKDh4eHg5u2mpqaTk5Pp7vP5+fmLi4vc3NwwMDDIyMh/f3/Nzc1VVVVFb5uFnbm/v797e3sVFRXS2+UjIyNubm5OTk5cXFyPj49qiazEz9y5xtaTqMGktcoYGBi/zNpujK5PdZ8kJCQ4ODhegKadsMaqu84ATIaNo70ARoMqO7DRAAAV4UlEQVR4nO1diXaqSrMGoUEEhzgPmJg4xWgSNdOOGv/3f6tLVTXQDJLsbCEn6/Kts09UULqo6pq7kaQcOXLkyJEjR44cOXLkyJEjR44cOXLkyJEjR44cOf4SrfKsN7xe1u5ry/mwNyu3fnpAfwe7Ve1cdloV/5PWbLgqRPBn2bv8uVG6uGz05/fvF3d3f67Gy2G7UbYjp1Qbw9WzN+yL+2GjI90M36MUubid3/wAJS467ZibXXge90c+S1rtq9PDTyCsXUm4cIpoJNztwsX1CJjWqSUP/m583W6MypeXl+XyqNmfi3dpGOV66miGb+5tZMjj5lJ4V3T0wfV8ee+x7r59EzPuTmPufaWdMU2XF+6Vr+a9UZVLS6VanrXnxSh5vRtRniqXjeEwaeaUr/kX/2SqONr8qstZrPR3mvM/Po9mn0mSbVcqFTt4VoPftv65hvw5uGD1kyZ0tXmPJz0k/VB3s38tKabBGDMspfS6Xw+8Yw3O56xm1zg8mQeLl83hsHlZdAN02o1xzbWqg/XTsf76+Do9Hl663hmtLdNMVZYV2YGqmpbB5OnaPTrE6zxnY5iRU7dl/m6x3xlM0wwHGtzy0vSwCN/exVFhmmHppmnqlqFpWmm74IfsreZSRVB1zdxyjl3eIV2dDIjqw4XeaeCDvcIsVRah6gYz3o5rn7LNJHyOrFqaPOWEdXcafeiTZrEpp6uWEVmXqAHo9d4wQsP1R23tXmjQEy3+HJ290RnSgUXO0LUtHSNtmLoQglA8IyO6ihE7XIKp4O3eR0fs084mNIe6iq6EDxoTmn6obv+kTBTKH1qRl4TxOrCQqEeWcIri0LXD0+ydFT4kq9rBv+J9qkTZnrJ+SRqvLDPkQniw4qgJJh97XYtwS2ZTPIRC2EyTKpQHeLFIJsrYJhClBP6wV/zlqRY9UavjobF70bQAzl4PXiiJ4mdO4JxjzECjxMnWZEBkKfxTxTtMZKGAjNIjquzeteMp0eL3H7T2+hQ7FY8gBf+pOiqGqRE8Cf7TjnDkwbnqPD2qwJ2+dv4OkuXPfHTOsc1EdgZgIFk7XQ4YZHjHNhJZk7v0qAJWgVMx1RMHyWCQ02R2BmHBN+yJGqbKOWLz66ZGVAdcJbh88oDNnXNON5md/gQiMnSYWwER4OQZwCxwlKtpUdXk8r1JVgM4q+rJ7AwOHfQL8GTDIgd1UBigelNLZYBf23D+PppJI1VBASbNvKhlcj6ygMHSa/RewK810lSCRe5pJhIlG0/OKfu/mVUIDb5mB6kC+nWJ1MUsLar4pP1kyjCYImqyAlQ8m+QzDnUMCnfgY82mCZ0WVS3nty/gykleray+SZ+6HvFfRNNdCguC5kSi1RSpgjtWc/5uE6ULBfAT1e9BEfmCMrhgiqAaZWJ9NUVtUeY2OGZKi/cWNKD8NQvsexn4AmXXV0V0zOVVWummEU/RTRKHbEhfMFYCWYJGtMBJ74a8d90mbZGWvWrwiCCREegtHRJnnue/BhiF3iwojJ3pyiUdl0hKUiIKqQJzlSiA1t454zGRm0rsSwCa3IXILAV1yCxlqkATJTLCgHAxOU4RiFEUTzfgKw1mlisLeMSE8KtXKKzSpipRBcKM/8SlD5LmUqjqumUxiDYDFtyCWOQ6xUhk9hWqTAlkiF5amsaYFk6bRQlzxq7ppfrxeJyiCIo3xYIMQI3HqmlR1fiMKpgGYKYtJr/u14vuYr0vxebOhMhRV7dd8UKywEg0FHcpOrflL2gLVIFbQ1PdJCbAS2R6dASkT5uGkr0TIUYBc1VJMyVY5UmLJHulg8mpK5vQV7cJsQsLn4zKhtOtKhLeztu0iMKsyFBKDkQsmO4+myoDXk84CorTNb2cU5Q66x6O9cfH+hG+O5E9Y4a6vkmeWkq4KBSWUrKTZz15Z3efHhVLMxTKmQsMDoifinHVYvK/D4MxU/8AxgmGwQCa56mWHR1V9O78OSSoC+PAzz1MmKGamilr7AMzTidkEO3b5uNt7TB1bSmgHGzTJx29jQvKlqSEBzLxi4RJYtAkebJA76lvwKbFjoE2OGGZwRIMmEkXMILmTqGYsZVukrNBTmaSkdWAqgWvK7jiOAEvKiC3nqFCATwYFk7Fui7DDRDumgoq1fGqxylS1eHpg9NEEa9kV50opLInEEgKsaZvqhTSmbrjPnYXOzjDeftiKK6/izZ4mKINBvBQZHdaCeK8mnjiBSJo1y1I6nVjbRbqzJ0KVtswFQWTbuQx4WGMuO5SrssVSQkm5KPRZS95U8i0do+6Trm02C9xqlzuIesEWQVPxTGTz2kSBbLwSeKCRinwEvPSyME3zxUXQmCSQNUN9XEmllQufwq6tj2KwNMDeIIRYQpAh3G8hiUURxeb9yRt4YmchdPSA/J4nGpBRPKzIieJiogQZxioMjHA8ONCVRKVHlovT8Wiu1RJuXglYf0qWV3EU6W6nnwECuiDiuYZXTDCzKUaWdyguZwmap/lzlxNHQKkaOKNN5qCnateXKr8d1A5SC1ty9EmfXTK/TlJFaucSjyh+3qwuDOLdDCXc8BhO30BxBDL8S4qJ72LU1R1oy6JG2tIwiEN5tUHP4pWopFqmZFg88DxZIiVQJUdfyuQPa4Iojy6v40muJiqZ8sxJuNxMhiJ2Cs+wEUcVWi5UARfuEhze4XHUOlXU62dunAm1pUwiggwy/4W4WQ8VdwrgsCSZ8sswdxp0BDUz6RFsEx2+KTbjiIUlc84qrzOBLgRT6RVVcj+kUOmgqMLpiS10qkA7rafmlg43aPH4rSFC7S1vNSMZSLKZ6OumKUbhHi4p9zF8cTEgtg1RkOe1uwyFzVuAiFKfEGjjGnc1L0ljiZ1gJ0M2Aexw4fBxlph8GGRQRUD3zH3RBWUSDX9djNClVusE267accNXy1JwUKJWwThnASxJWYxflcUrKdepxwv+rgji1WKnVg4R6IOX7x36H8LmGV7VA0YV+s2qaYscE3e5lOsK0hURXiFM8fX90LyljtKwKwnQ/aLDxiD9NOOrHzMkgr5qI6jxsyoJOdwqNANWShOFUb6UpodMSHYvJcpPhNm2DEFfBzjJtxSFmAmmDngMacKZ1oz/RjER426OeOTF6DZ7TCvUAA951CJ0OSoQTS5jhGkzBmxKu0sTAANSl4khEshTaKCXj+lNN3vgYOxZlyCcValm10Po8LFPValobZ7ClKAHm9SGhu/CMquZIGV2mvIqtv0uhHisCIrEqup8WaHnAsGtaegiyX2IwiJwcX/MDJGW9XLlFV4PSgixLsXqKQDHY8YaiS0q7pfBA/pDfz3/2FvdEZLKTxw9yI+04QTPdCdipMkFHLFNNNhEAKUbT6AtHaWChCxokxTvLMQ7iRGW/SVZhmDuxFvoDhaGdoqjiaJYHxjGVnUJ+8Yarc4MxDpsKWm/IUF/19SaJAlKlzm44Ms6tD3FogwsTEkEagkpAnwupydB+ijRnH3U7wNYrhWZ23iUXTXT+oKryMf/qITKeFSjPeU11DEgvuCgxNBFi0SsbeWpqtYOPhaa7Fs1fnvN73FUM7PlJvXy3naiU4E75I50SmoflBTiP0yLZnw0qHuJKt4OR8tGKOqMqiK4rDf7w+XK3fBbhaBfp8uc6IRlW2DZ3dfX80T68+Cd4Mp2MgwLsQgcdnneeCarGiOzIGByiw02V+URCnEbmiFN2r03CXH78v+rGrbl6tCmn0kPmqkeePUgFEnumuj4Fd2n0wu8024EVUHwoLWi2x04ohfJqrcqd2+gvNh2Zv5DqrN1bu4oEf8S6vrwjwm9DOoIQD+kH8RieZp6ZXkrWgHquwjtigIjmOgnZ0Xq2Ay2lvFOgQvhBwbCkoxTTT53QsxS5VxFN7eByMY6sTQJsK50bAR7BV2wZQcpWLo9cOiOxh0F+vDsbTD3ytktdUAv1BoZtFKKm//BxzKo8UdjojfJBIn9FbrlsagYdJgH9SHAgtUstnvosdn1qOoBMj+DjlNd2g7cSEgeocvCfFwqMiKpW93MfRDITuvkF9qIHSgkhWlHRWKD1R3otVHOOjTJUreC+35xKblCO2eL/BeZqTXEU3u4758uEPT0FA57lSx723IwVfgIr2JvIJMZ3c6US2my5PX7Yu7e0IHFU92G8m8c8W05XfYeMRRFGpCYMSP0WLSU90noCywDysGuAg6q7w0AMIFLJlNcegGGqqWkG7tbk3SDxqtCQ6lBP0VtDJP44TRIpqy3LuDBB5F46BpxgcN64pby+6hrjBelPrgfmHSEicsVwVQbbiqNENOSXx5MqZM7JcNzYMxRsnSkX1wP93U2Zvbh8urImh5FcXz1OG1gonEWfOmU612OjfNtr+RznPWu07duN6Di5rr2aynExNb9CdCC7hX61HERUr0Ckv5Ma76c7aMQqAS9yK6CroU7ryyB93uwFWFVdArkaU+ghWG8L4aJul2+TObaKGgjPHaFXfnn5jqTBNrhkkLmKBsclkoXLhbhz3fDxsZJ5kEcPlf1XD3KNoh6q4RPAe2IYJ+hid/Xgls4h3gElq6vmRXWtXWD2ybFURfkJgbyd0fatkr451udRpEt0BVFAr5Hr2s1V0Cym7UMQYHtHwfM+ULVEZJmFdohIfpt5f9BW7mq6vx0NWFlWbtOUDQc7NNfTuCZg8DjfAyi56lf0Drpjen9FARdjTjDXiiZg8BG2SKmWeh/wk9crrjuznxnwGZ0cIPJGz/AT0yzic9Jlo81kq7xfvM4OkAKu7HTSuFkbnKJDlxLjSIKjFqDCyvVXARzCzzktW/oUEzJiEW5uYq05DjX8G7+6nsryjCpgKKsCr4+icKIf8AyIm24tLyXoYTyqe1LAP5M4C3Vp+uo2I96P13mStcuNURW5kii2t5dPWbzJW7P4XQhxHYLkFWtEEGK5LODSgkj5L2cYIK903aG+qdHQVqlQxrCm9nAVDszezL9v+Iu8iq8ICHgYp9+MsUO3rjwIedGUsUpc3Gv0yxoykKrAoPNWcxrgJ/lWL3qmqBsFFY3ejuJPXTw/xL8FAEnYuIz67gAsFmRssMzogRmeETW85gB+vql/m2EomX2CkpFA54fqlV+HXKAlUBJOC7XAQV+kfuOxYos6rSnxWQq8a9L6PuBXbS2PE53/84+nzUtiys8Ea3gtqDrn+fXpf4nrLgkXcDGzW7ZSAIK1NflJkCYFdtzEp0Jxp5GKqlaa+0PbZH828DbvhPWfTNztCYYfmbuAOnslk9dnYUfbKc+HHgP+CgheWFrJ+ycSa0qFYSlrPqQ0Ek99fhkmoJPbFfrjF2S0S/FmVeI6n1Rped8qjnPXRk/hsVhYdKbOvp9e+zUyGMwo+7qf2HynD/AP/pUhfL9n/g+V3ng13tVH/o8VY5cuTIkSNHjhw5cuTIkeNXYvE0LU0myqQ0PQzCh/avb4oqT3bTjRBrdhcL6T+Og8LgeaMONAc7cWf9wwQ+w0OGob16h5yPf2Cgf4M6U7XS/mXR7S42U9NQP7ylMAvF0LXJFg8d6pahM3ftT4mW7f938aTJiiBOe8PbX3/DVPboc85+slSjRNnDkvn3VI3fHVwBLi7el43Pv/AvsFQt8DSHjaaaOPQXh6jg8wMGb7pVwlcl2u3or1As3D7fErB/O83s6kILLyl7VHHbqS6jZrQASiZt7/EdXhWFfH61nW6b78EyQg90WBu4hc6bGX3SA1Qrsenke7wSSy831Fz1OZbfWTywt4x18JPBh1HCTafiFjs6H4MMfkdbBKmSal/cG+n+O1RFeWVPj1vYLpZ1487fmfD5GahqfrEh8VtUrTXzNebjiqaWYs9/MaCb6wxUzb7YDPEtqmxG3TEhrI3oCk463zBL56WqM2rMbgSFaF/OGo2RV6u591c5wpnlgOq0y7MGbYdVvRndCJWDqaGwY9hPkrZWVAES3lTrLFT1SQn2eB1tzDnScde+XkG/4uj24vn24uIOSvXtO16ckiRoimndFWkNJGjWHl+wNfduxk5TLTaZbgLTqK5rsdMKjwy+qdkDVF1A55S9KhQeRuUbWP2GRzuFwnLUabUu29jUWK4trwq1+bIv2UWHnlm5PJs7lg4WlLUKxVnh9rr9MJIqRecedFrV2b1QOD3IzIKHysu7/dr1YB2jFeEfYQr0fo9XYv15iU32K08Rdv5gM+nSI73K1w3XSAKLhSJ/BlL17p6oer/ga0Devc6eprg/22K/szRDtyyNTfb0YF7VOGH7UTa/R9XcmTCI5vUtdkM0BVPcwaaPO7/zY0htcDXUFrPCnXegWrhFqm7f6X1baITuBZ+rZnc30zdDc5jGXgdI1QleOVR1vyeB7j5IiHu4p+9ipX0OzLrzt9IYLZs+VfdiW/CQeOWa8Ttx1XQxuu+hvXiaMFW3utKreVoC2XclcNnkaIxQmloBkzUCaVxG2ieIqlvxGVxlThWphk7hXTi9F99n0Z2Y5kQ6ntSBO1Wzv+kxha93E+ih78BSWehlHD80b/wiPFJVCeyx0SKq+C1x7sZl2cVl70RLVkWXWXdjhDfGcaFCn+S/+4E0HnHJVwsXlbb6vCa/6lV8qlqBzZ+5Drygd41QDX8Mz8k6RHiytaz9IN4NBFcefPwzaHYJeCW6glVv5J1Ze/le4JsMIFV2wBGpElVX9G5WWLaqIhwf4oNF9rZwnPapNDmh2o8WdH+eh1edQDRSDqmvJVFJ8+qPuKPmDKiquFSVo25yl9HzykSsNScUORixW3nAk5Wls/gWgECzZdsxu53myL/ULVJCVM3FL9cCVAX52J7fgFsnRwyTM6e2sKyExeiLuoWPojsTVdfi4pQLR+JGIveuUASJqrJwA2ZorzyqyCRwcM24M4Wn0RGmOgQnsKtv5ImGG6bDxjnweOVzUFUVPJw5CJIt+AZV6sWsUfPideF2RJ/3CssAr+BEz0bVyM1YM9kKenwVDbdelo6aqYSm1oHx7bnOM69oowa8deVx4QIu+lB45m1Il0Vi5LAwdlw8XEFxNe/357eO6g5SBQ371EzXuXd5vbNkU4yGB2+qRkFIXVM1Ub0PXjWZiPqWDryKWwgwenYGuyr6zYuwSdaqVlvduW3buJsI6IPLa3DMn5eOQBJVvgkrXxUKxRrsh+EaK/tNk7US99gri6mlaq5O3zLTUPYLvFxlXdd0U9Zpbx2HV/UQHj/L5o5msRsDN65X78Vl2zvWal7fr4rjedOdR/as1x+5r2mU6E2MxL7G0XB19V5ri9s2OY6txgxdkS2mWQbzw8XujhkG0+SJbGia4yE+miptkfRm6UYIH6H0x3lRLQu35PJLi1rsw6PKKPWsl54Cc2lxnBh0xJocu9JA0a2Jc8J2GsWJeOw8CCjHhy8vaoG99RaLOMNb6a7X60WXmG+XDC0uz5E6BD3XSWFNQT0+S5M22p5ybNym0f78Q326kKMo3t+Dukw5R58p7MawtlrVhqOfHkiOHDly5MiRI0eOHDly5MiRI0eOHDn+P+D/AKDynu7ZSq/uAAAAAElFTkSuQmCC;" vertex="1" parent="1">
          <mxGeometry x="540.7800000000001" y="530" width="75.95" height="84.51" as="geometry" />
        </mxCell>
        <mxCell id="0Y9DeedcCKoHoYVFYHTG-61" style="edgeStyle=orthogonalEdgeStyle;rounded=0;orthogonalLoop=1;jettySize=auto;html=1;exitX=0.5;exitY=1;exitDx=0;exitDy=0;entryX=0.5;entryY=0;entryDx=0;entryDy=0;entryPerimeter=0;" edge="1" parent="1" source="0Y9DeedcCKoHoYVFYHTG-12" target="0Y9DeedcCKoHoYVFYHTG-59">
          <mxGeometry relative="1" as="geometry" />
        </mxCell>
        <mxCell id="0Y9DeedcCKoHoYVFYHTG-62" style="edgeStyle=orthogonalEdgeStyle;rounded=0;orthogonalLoop=1;jettySize=auto;html=1;exitX=1;exitY=0.5;exitDx=0;exitDy=0;entryX=0;entryY=0;entryDx=90;entryDy=80;entryPerimeter=0;" edge="1" parent="1" source="0Y9DeedcCKoHoYVFYHTG-25" target="0Y9DeedcCKoHoYVFYHTG-36">
          <mxGeometry relative="1" as="geometry" />
        </mxCell>
        <mxCell id="0Y9DeedcCKoHoYVFYHTG-65" style="edgeStyle=orthogonalEdgeStyle;rounded=0;orthogonalLoop=1;jettySize=auto;html=1;exitX=0.5;exitY=0;exitDx=0;exitDy=0;entryX=0.5;entryY=0;entryDx=0;entryDy=0;curved=1;dashed=1;endArrow=oval;endFill=1;" edge="1" parent="1" source="0Y9DeedcCKoHoYVFYHTG-64" target="0Y9DeedcCKoHoYVFYHTG-25">
          <mxGeometry relative="1" as="geometry" />
        </mxCell>
        <mxCell id="0Y9DeedcCKoHoYVFYHTG-66" style="edgeStyle=orthogonalEdgeStyle;rounded=0;orthogonalLoop=1;jettySize=auto;html=1;exitX=0.5;exitY=0;exitDx=0;exitDy=0;entryX=0.5;entryY=0;entryDx=0;entryDy=0;dashed=1;curved=1;endArrow=oval;endFill=1;" edge="1" parent="1" source="0Y9DeedcCKoHoYVFYHTG-64" target="0Y9DeedcCKoHoYVFYHTG-22">
          <mxGeometry relative="1" as="geometry" />
        </mxCell>
        <mxCell id="0Y9DeedcCKoHoYVFYHTG-67" style="edgeStyle=orthogonalEdgeStyle;rounded=0;orthogonalLoop=1;jettySize=auto;html=1;exitX=0.5;exitY=0;exitDx=0;exitDy=0;entryX=0.5;entryY=0;entryDx=0;entryDy=0;dashed=1;curved=1;endArrow=oval;endFill=1;" edge="1" parent="1" source="0Y9DeedcCKoHoYVFYHTG-64" target="0Y9DeedcCKoHoYVFYHTG-12">
          <mxGeometry relative="1" as="geometry" />
        </mxCell>
        <mxCell id="0Y9DeedcCKoHoYVFYHTG-64" value="" style="ellipse;whiteSpace=wrap;html=1;" vertex="1" parent="1">
          <mxGeometry x="920" y="520" width="171.27" height="110" as="geometry" />
        </mxCell>
        <mxCell id="0Y9DeedcCKoHoYVFYHTG-63" value="" style="shape=image;verticalLabelPosition=bottom;labelBackgroundColor=default;verticalAlign=top;aspect=fixed;imageAspect=0;image=data:image/png,iVBORw0KGgoAAAANSUhEUgAAARMAAAC3CAMAAAAGjUrGAAAAk1BMVEX/////ZgC4uLizs7P/XQD/WgD/VwCysrL/XAD/YwD/YAD5+fnc3Nz/4db/+fX/zrzPz8//qIf/wKnz8/P/x7T/g0r/sJL/nHP/5t7/l2z/r5H/cib/9O/Dw8Pm5ubW1tb/2sz/TgD/uZ//o37/ejn/8Oq/v7//1cXi4uL/kGH/bRn/jVz/iFT/fkH/wqz/SQD/cywNYCB9AAAHa0lEQVR4nO2aWUPqOhRGW2gCKWNBBBWkTIKIHv//r7s7aaYOyGDvPffhWw/ahhDJIjvZSQ0CAAAAAAAAAAAAAAAAAAAAAAAAAAAAAAAAAAAAAAAAAAAAAAAAAAAAAAAAAAAAAAAAAIB/kX7aS3v6mq7SeUWdmaHqxWJ7VK1cOp/NdmcaPtNOR3JV8fiwHC67r5c/2rX0OWOMn9T1VF6vKj77imk43z5X9c0jXfFtuXSw4u8Vf/wP/b3qZrqtZrPZKhUfSsXdRrPZaNCP5vDnD3Y9PRYSTF0fhbwclCtRHZERiphPLzQoJuXSQTt+Kpf2eRhG1c10VUdLX/6CShuek86bFqJ+jX/8ZFeTOck+2It00q50IrZP7+/vpy1jIoy+f27wFidCMO/eiyPlpFH86jutvJOOUjF8fX3tSjmteqRc6SR+1JfpNg7jijDwGrzByXG7fbF384lXhZy8UXcLbzg0806kkYW+XtJrzYoZ6HaudfJsbyYi5OcmxuA2JzlS3vaikpws30rBQ6Gz9JxIDQv/LaWBdRe3O9lx/66iwTudPLTjgpNusY8UOs1x0zmRo8Z7mQZWq46BcrsTqiY+fmrwXidRwcmQup8PHgqdReCc0G2z6738SvfLC3/lGu5w8iHE508N1uYkKK48i0bz0HFOFrklKFDTSyP4Pfc5qei1a/BOJ4Mo3rg75WSZDx4KnVbHc9LyZxPJsJ7gucPJt3D9m69PIWfH9wevQelknrxw9rm2pZmT3ebIo8mXa2q/Xmc59Hq9npLqEf1ep7JAOSkEjwod52RcCJ0smGrIZ8tO9uVKOSdzHkYjfZ3wSMSEYEeT3ionAx5RoWiHplQ5GXFZleraLcKG86wpHkX0x0VEcGVSOSkEjwwdz0nZQNnSXeg8ti+vY6VnXa6Uc/IUh7yfXb7TC/FTkkw45bm2QXGarWKxSbaU6kW6++RkuudRuEleolCEpq0k1npXnF4MY06sPCe54FGh4zlZljLXTj2rceZEfD8+rrdymJCU5NFgIsJ3smEh19oGtCpPTSvGJTn5+GQquEb0+sk4EdMjU/PFIwvtZGqd9PvZHNsnAuckFzwqdDwnw3KOVpphfuEklBGQKaFvy7IaWCdZHrv7OkaCm6nwJMRRX65jsXUNxhPT5ZD3tBMq1bOQHGg7U8GGYdW6kw8eFTqek0U5z23W6aQa84GpzvfHafLdpumDf9sJh8Z5oi93NHpcg6bLUmYmUDphOuJoQjJbhYtOvODJQifvpLhxJidv97swXOtEbYzp5+eZtJ6bSYYaFCdTSkMim2fIievxRJhBddGJFzxZ6PyfnMjpj7FIiCipbId5TiK7Mj9EesyQE2bH12NsBtVFJ17wZKHzl5yo1bXgJE7mu92uNzrGZ44KfCc2dOQNS+UFOTGLFWUlJCgbbpedLPVvFTrq99+YT9pPySaZtgtOzFnBNAqj0qES+Yo8J+5IROYyatDI+cSWzoypK5zY4NGh8x+uO444i41RVO0koBXbfeM0ua5PKqxC58QuRoGcZrI1mtZil/HTzlpny5ed2ODRoePnJ+Wstc78xJ9DsskgZWec7JmX/s8mMmGNGMs58XaInhN3EGVHzzVO9MpjQsdzIrfBh1xnas1jb3Di1lfKSrgIWbj52qepFzv+HtA58faAN40THTwmdDwn5az1tc79zi1OaFusZ9kvSulDvZp4a7Fw5/befOKdudwyn5jgMaHjOSkfDSzr3BeX1999+5yTdWRWUspEzNQxt06ow8LWTU3v976pwQ3rjl55bOj4TkobnkYtS3HVWjxI03Sv9siVTmQ/VcI+sF+3v9Y6O0HmT93M/NUouSE/0cHTNaHjOxkXlpmappMqJ3LKbIsza3Hg5oiRHTDZwbU2EXnHDVshXsybmHnaGIQ2073GiQoeGzq+E5WhePNHveexZ6h2Ys6UHuy8GqQ8dAcIwub2PW63y1theyzHl850c07abk+Qc0LB46WsvhP5uMelKMOajmPvcbKJs/yrZ5fUmTwQMk723D5LpAA0EfNF6W2qrvqyZV3qO6FFnrvn0Z6TsXqoY4LEdxIcpJRsAI0X9SSxwV1O5PhQH55WnYh6P3/m8enoZpEtTRdruklJCbdbnyP5kaeOe3qXtpN30qdV7Hsmk+KCE7W+2Ewk5yRYSinNxZBiS9Y6dJfD4eK3TwPpyz5Pu9KJnC/VjLFfURUW8Tg6Bm6c0ECgTRGPGROCu7ftIl0aCm5PZH0nwVM7FIzFq33RiXy05eIl54RSEiVDo25+/4T0hZ+H6c3cH3dQIlmZ2wFryyyWJ/Is5Y/L+J84ldML4d571/xD5rxxxF/sZBtsVivvqPNdVeCZk1bLOhm3mi0bFZ1W4d8Num/yfw08anhq3D+P7c587m1x5K0J/Idk8zjQZX6Nh+dNkh3Ae+xUac8r6ecbno1o+7lWX0RnPHZLyLhwU+wCVfa5qtsAAAAAAAAAAAAAAAAAAAAAAAAAAAAAAAAAAAAAAAAAAAAAAAAAAAAAAAAAAAAAAAAAAHfyD+tXgFKyEXQyAAAAAElFTkSuQmCC;" vertex="1" parent="1">
          <mxGeometry x="953.04" y="540" width="105.19" height="70" as="geometry" />
        </mxCell>
        <mxCell id="0Y9DeedcCKoHoYVFYHTG-74" style="edgeStyle=orthogonalEdgeStyle;rounded=0;orthogonalLoop=1;jettySize=auto;html=1;exitX=0.5;exitY=1;exitDx=0;exitDy=0;entryX=1;entryY=0;entryDx=0;entryDy=0;dashed=1;dashPattern=8 8;endArrow=diamond;endFill=1;" edge="1" parent="1" source="0Y9DeedcCKoHoYVFYHTG-68" target="0Y9DeedcCKoHoYVFYHTG-25">
          <mxGeometry relative="1" as="geometry" />
        </mxCell>
        <mxCell id="0Y9DeedcCKoHoYVFYHTG-75" style="edgeStyle=orthogonalEdgeStyle;rounded=0;orthogonalLoop=1;jettySize=auto;html=1;exitX=0.5;exitY=1;exitDx=0;exitDy=0;entryX=1;entryY=0;entryDx=0;entryDy=0;dashed=1;dashPattern=8 8;endArrow=diamond;endFill=1;" edge="1" parent="1" source="0Y9DeedcCKoHoYVFYHTG-68" target="0Y9DeedcCKoHoYVFYHTG-22">
          <mxGeometry relative="1" as="geometry" />
        </mxCell>
        <mxCell id="0Y9DeedcCKoHoYVFYHTG-76" style="edgeStyle=orthogonalEdgeStyle;rounded=0;orthogonalLoop=1;jettySize=auto;html=1;exitX=0.5;exitY=1;exitDx=0;exitDy=0;entryX=1;entryY=0;entryDx=0;entryDy=0;dashed=1;dashPattern=8 8;endArrow=diamond;endFill=1;" edge="1" parent="1" source="0Y9DeedcCKoHoYVFYHTG-68" target="0Y9DeedcCKoHoYVFYHTG-12">
          <mxGeometry relative="1" as="geometry" />
        </mxCell>
        <mxCell id="0Y9DeedcCKoHoYVFYHTG-78" style="edgeStyle=orthogonalEdgeStyle;rounded=0;orthogonalLoop=1;jettySize=auto;html=1;exitX=1;exitY=0.5;exitDx=0;exitDy=0;entryX=0;entryY=0.5;entryDx=0;entryDy=0;" edge="1" parent="1" source="0Y9DeedcCKoHoYVFYHTG-68" target="0Y9DeedcCKoHoYVFYHTG-77">
          <mxGeometry relative="1" as="geometry" />
        </mxCell>
        <mxCell id="0Y9DeedcCKoHoYVFYHTG-68" value="" style="rhombus;whiteSpace=wrap;html=1;" vertex="1" parent="1">
          <mxGeometry x="1150" y="80" width="190" height="180" as="geometry" />
        </mxCell>
        <mxCell id="0Y9DeedcCKoHoYVFYHTG-70" value="" style="shape=image;verticalLabelPosition=bottom;labelBackgroundColor=default;verticalAlign=top;aspect=fixed;imageAspect=0;image=data:image/png,iVBORw0KGgoAAAANSUhEUgAAAOAAAADhCAMAAADmr0l2AAABGlBMVEX////+/v4AAAAcERUAwLP+vQH+vwAcEhMCqZj9wQDZ2dn7/vn+/OD8/v33xTH/vQAAABEWCw8ZEg8hHR4fDxL38/T/+v//xw4bEhULAACwgwoiw78Awa2r8OkeDhcBv7W9urvn///97q8NiH0QAAB149jj4eIaFREAqJe0sbIAr5kAubGMiYomrqllYWLMycqmpKX99MAAnY9cV1iVk5Q9OzxwbW5+e3xIRUZST1Du6+z9//F51s0NinccGRoNAA4sJSU4NDX797v798r/+On21Un44W377Kf3xi/4zmD74p3tzzX8/dz1yEj75pPz//DrzlLtxgb/9O3+zAWvmDihgg+OwJvQ+PcQh4VwWV4nnoW27vM3LTAqICRyx2wAAAAQaklEQVR4nO1dDXvaRhLWLsaKhWWfwLLRtb1wKUdLQiVygCTkFkOba9Kv67W973P//9+4mdmVtBJg/BkQ3feJbZBWu/PuzM7MjgQxDA0NDQ0NDQ0NDQ0NDQ0NDQ0NDQ0NDQ0NDQ0NDQ0Njf2BzVjDVmEweWTbkj0SGkCHSdg2/bIbDfrZtmiPA9bI+DGDfsOB8waeamxbtseAzRo/stcZvvzyq+PLBgJU2WDblu4RYIO23pyc1uvwj3BUP/nL12/fXArT3bZ4j4DGuX387kgFcD26+ObF8eXlJa7KbQv4UICajk8OgdchQlA8PKz/dHHy7c82sK/8QiwSTFG/OD09+u7Fmz1Yh0WC9QxHF0en9a+/p8ixbRkfhNUEDy+O0F7rP7ymILJtIR8CheDp6WmuQXA1h0f1+gkxrHLMVwjWCwRRm3D45LV9jna6bTnvjZTgYZkg6PAUDPX03VeU62xbznvjBhMFRwM/pz98VXmC74QGD0saBAs9PQSO31zajepG/MxEj9QgoSjy4qj+lpLTbUt6T2wiCHZ6ePI9u6zG7onWUnE9bSJIpvtX+5JVIme7B0Hwo4dHJ8c/nleCIGENweUwITWIAf9FlZLS1QSXAr1qo4d/+/myEmuQUCDIbkWw/tPxbjqZFfFZOSQqMLfS4NG373FXcYeBHoEg8buof335/goYjzvQRg0Sy6Mfjquart2KIGwqvq9qrnYbgnj6y4oqcP1uoqDBw/rb84oyVEsWqwkenmK0rz7Bdcm2sNHTF5Vfg5sIVlSBm7dL+6LB3yjBtNK9pwTzUv6eEsxJ7jHBek6wmgx/MwSLt8/K0AR3F7cieFRpgue3JbiTVZmNaJzbb95tIgg7ihesiGIv4gGpnVRx4/zHn98d4r2y1SAvenRRfyuefgI92vQcDb1JgW939Cai3Ti/PP7uYgN++eXotTRQfIZtlQLtXb09g07m77/fiH/883OBP63B5/96RIKPOVWsce4u+O82gX/88s+EV4SDA/GT4vmHrz56xFzuUQnazI275tmNaNau/v3s02eIg4PnhIOD9BW8fo4Ed9NCscrKpl7TvBHNs6svnn0KQIIrAHRffbRtJmuADmN0O4JSg9smeOdwxIyIA8HaamQEXz6rLsHxDQSJ4Se7RPDOYEYABNfxI4qf/MH7+CaC4GV2mKBhJK2HE3y+uwTBjUKcuJFgs9IEAQO+5wSDhxI8eLXTBJk7dx60BiGROdhpgmCje07Q4u19JghbVf8GFVafILONzl4TBBUao/UMq08QyykWd9Ytw30gaOOWYn8JGsgxWXj7TJAxe62f2ReCa6P9vhC03SmvtVcsxD0hCLHCnXvt9jLF/SFoWDNvJcFNu4kKEEQASaslXOlZgV/lSxYSDLPuBazDsgKrXLJg5bfJlJes1JQmekNddGcJsiWCjLmDUtJWZYIrAAsxmAHFtsqwebbByRxUwskIAMMk4rxE8OqLly8r70UFIOSDEn2OhipZ7hXB9FstghApCkvNCK69u1Qtgob4AgRrfM255/xBMdF9IJgCb+G41mDCER73Pv5U4MMPV3uZg129AboO6VMhzOpH4X9G8X+ffUb4YCWef/DZ/ypHUNz9Fe/wo+Z/vAEN/KkYQwX43TLie3XO18Be8XBQRSA+wZV981NjJWxqsQMEn1CIXaD3GyD4AFRT/qXdxE1N9xx7T1DjvYDJrzrYeZe27snhW1wn/z6BUI+IXM67CsrcISDZcYJY+QExx8k9HjFNcHdjVYAgyXkPU3NbThsufCqINf4I3Ug5704weXKCLnPdB1Nk91bEkxPsTeI4Th7cz/0IYsXvaQnaRo9fOV7voWa60wRrtfYWCT6xkxEEmw8kyNguE/S2TtDML6SvJTbEN0ozY1WGY4vD2fc0yw1UnkbJF0xsraSJJoadFogNtZUsqxZGwc9tpbTYOoK3rOkIgk2FoKziCprlj0+Jo8xWGMrKChMDikvkYXkACTo9Oz1CdOQL2VHhS/Syr+5Ws8+coJDp1onpCoKkPYhcrmvTPJUJGjaeK/csr3OVc6kAiUcaVOdI9pr1VBiGZR1lMqoEU+loLu5AUJmTpO9P5oCJP+wV03Fo3Q8nCzo3DqwgCDr9Yd8Wdm1Y4xGeWkxG4bhjJdiZ2+/3h92aUxv2BTr0+InRC/qRHy+oud93c2PEv24nnFzjmdiPhkHPFXKlJtob+nh2MRr3bpHWLBM0eiHn3a7jmI7jcT5KexFGO+bc6zqmOCcxJ4MyrBiucwhdOhmAYijRxfsxaeMFdtcR1f0udAPDdDnv52Vx5o7haucMxxf9TIycYDCkux9wWRcui9yNrqtgojRI4KBAXc+DfuCFxzvSgEBPbgznBDVPPNEMv7sLmuIx78J7uA4nB08iQcPFl3TDSXxmy4nFk5hwFOUHdGEUhw/FNIJ2kxjYnWFHcCq7RHp7x8H7V04XxsDBuc82fchSBPqcoBFgD5zHYRiFMU6+A4JKgmwE7/mv4Rj2LdE1PuTUum61vQWO0aem3sT3/VF87UgN2lKD2KXARBDkfHYdj3w/DP0WXWkJn41zCNPEf51CR9NJCydzSs82EkFsyZ0FXBh72C2o/o4E2cSDy8KA1jezIujFW5Ah2CgXnIuku3DHGL8t100SOEXTy8cWugxwAYnV6cMSAcFwmXrt5qwTSNCQfVii0hmxBB9a5JE0NpwoL+4k5CldF9bqcJhpsNbm80EHFiVmuCibE5dDzAaC9BgvH8sACM5giJzIfkDYabcNRkGhAN0XjMB9vI64w+Adwy72bdOBHvTRzL1oafMEjUJec65pOGbETs2J3ZKQeULSV07hg3J8k6MpErSNUbfWneZBjRk+b3tTEbOStlhY8hRDwXkiVi6osytMSQmPMpRCO8xFbUGZZX4/a2kJSclCYVXDRDE7SwtsGQfTjMtOL7aTGbQd3oUg2J1nNlERqSaESts9mnaLm87czTpkbAEpUCCaRbzGB6X1IN5syEVJ1pZ0SSSAyXvieVu1H1be8DL6ECOsGOPmWFgiGHCz6SW5pQnLJ9tDMzS7U6aUfUaeCau8QLCYXd2SoLGgMfBd4jUFQbaOYNoPPczZ9vw7EITXQ256MSucjq9gUZJOkeAoX0FgvjlBMFFnsjJ9EgSd1QSl7BlBw/0ECA6NpW5YIReVw4BDciYb0pkSwQgI+kWCoUcuzs41mI6harCPyyjsKfKkvdxIUGKSETQmTQjwHbfcYiXBAGa1tSlfK5oo6iQyCtYxQM70SqzB3Du4yhpMOPpwzx8G5C6FnxXhc8lE0V+KCOH2IJwMB2ErJzjE2eCLQd+SGxrpde3CboLcDwhUM73lOFG2o6TVzAiOuiYspQLGQHAqVF3wokLwLL4M6IE8iMuzaTS0su3GCoLCO7udyBdxHIB5jyToOpiaY6Kw8Af9JDeGpf0gEWzyJWVvJDguNqdlKVjF3bPuSMQ2NAsMX45oBCoZcFSiaZoo9CwKjBsIGu6AclHMvZCL006dDASfWKSBJiWik2GSrollgr3VBMtwU4K4qkoEM79jo1i00Hy50DABaYO6yX7Q6fXoCRnMxCEX59xPDIWgkygEWTLhjknpXGsy9QfjuQh+MvJ1QkzsHOyo6XFnKPePKwmaQHDTd7oUCHqmlLlIEDUI/zDX9rpxOBiE0xrkLlc1WfIXe3DX6kejOQpnmjU+SVQNqgTdEa+dgXICCxI2PLzwJEEZXJJgGMYt0DFOFjrVdQTNOxEE+N0lgmINismFmYcR0Xa8K0ip+CzIo6I0e3AcHVAlGt1YLn/MZHKCIh8E3QvbIh+YhwnZAsVyrWE4w/GcpOxFCxrc+B92FQiCBkPFLYnIARmnrBK4gy6YDexWkGQ36hVWc+5fWaft1K5iOyfYVglGGDRzd1wiqEZTyKhNU+4WVxE8Q4Ib+BUIijhYICgjh2CIsbDpx5NJDBt6nNhirSGXeYghKkmLTm21LgqWDpKOpcqpaFXWYJasGvitIGL4RyAoFlx3orpYBkHYFNJQ4jZ3PD+zRvUrm+QRsQsBUhgWrZwgVrbTbiF+4s4jz4hKBFWmKBH31xIkJ7OZYJ7JWJxyXaWTZAZHUgcAfrSJe0xZ+lL/v7rMQYidFcyEJAhdeO2aqInIAee3Joie2/QeQpCpNRn48cjk7Xy71JG2JmRHg+llpmgrdcXsElHySxyQRrZME4S0pEgaFPkmffNRSlBZw2kVyEZb98IVqZriZNJ5vQ1BXHHOghlpbdNgI6/mjVi6LCZdqhEr//dgJktO2aA8uObMZR7iCvntbLc4pW1OuuvMnEzWg8ITNtm4TSlp8F4ExWWwX2pjsSpd6ViXoLFF49gzvZDqeNn16WYmdZL0O4DQ7Y1kDRxmrYZmZqSlctiKOzOxJ8IjbvCr3LmKSVU7HvN2yv1+YaJIEGZvigsm7luuixFtBP1346ySjkHR9Jz5ZDoajfwwGgautKRkApljJ7CSBOsxkee003mhUAqzNOi5btILArELqHmxRVUXaLygGtvcEm4ujobQUQ87Cvr4kRNn4dprCTY3eVGxXTLJH5CklkNlPD6fTCAn6WKVUNmiuCPHbGPBjyp+mBEPKZ7ZPS7yZm/WojyrjdUbWxKkmxPQ5Rz69aC9DZlM2+OxP5pQ3tOG5BPGHAX0/QMCTgszcU9U9VSCme3YmYkucSoamIuljazwawQtnFDMgkWVrhvkt1sMC3ZuHvc8R56G8z5KTEoRhVIHhG23u3ScUjWK7FgapWppDVOr3gzmvolz5NAOxPfwI2xgpViAamf9UOlThnkgOFMIkjJ6kLByd+nxuTLBJH16QTJ0xzitIlnhrYH0oHKFesAoHI3iyWLekvscSoatyUxWq0U1etpJdxP0Z0DZM52iMlgyypo2R7BhsKZ4EQagwUKagrCQWdRLkwzXE3JK+yTLACwTXFKoZVlB5jeIcjCMfFhkEW1f0yoMFYWbwIda0YKKYO92BUkXutvECvqDKMS1OehYeXFG/OkNw2k8xR5limaNoWkoRwC3bQ2jaYBpAW6Cx4OQxqdsyU6nCeS03Gyy8dYNHlH0tYafIoaw7fzmoMFSX05b6oVwdvQft1KswLJpjUp5bNlKFHdIvpFl/YrrU13YaZ1VNMzjP/1SI1Ge0Wd5k9RlafBliksZ83Jbim3eKD9Gup5R1WJ5hKVJZQUx5dzZdt5SbWDnkqhvyrJnk7+JYEkQlVX+0qbSIGaldm7MlKn2N+7ISp0p8790do29rbfDexFcpUEb4zV5FJVgTARvXARKxwUNsqLYZYJFQYzVqlqpwXtCFBDLGsTCWqdA8PFGfM8Q1etImUqMDjytHObtqsFvhT1gYt92rOwGBHo4CMvO9X0ecdw6Vhl8DwlOgsyj2FZIN9s23B2oBsReCotqHLNhfLQgijkl5m7ZS70HWZ6iU/AtiYOJ4lX6+AFl5bI4+MTDl2R5kk4xqrq+yFIFgOh8vOQ27zz8xo+arNgt3LrvQhxKU85CzDKysEVvrXHkpwijvpuGs7xl3roQ8ozimSznynNdJevKmzD1AjX5U4LqcgsNDQ0NDQ0NDQ0NDQ0NDQ0NDQ0NDQ0NDQ0NDQ0NDQ0NDQ0NDQ2NLeL/okD8GEosdSYAAAAASUVORK5CYII=;" vertex="1" parent="1">
          <mxGeometry x="1200.18" y="124.99" width="89.63" height="90.02" as="geometry" />
        </mxCell>
        <mxCell id="0Y9DeedcCKoHoYVFYHTG-77" value="" style="shape=image;verticalLabelPosition=bottom;labelBackgroundColor=default;verticalAlign=top;aspect=fixed;imageAspect=0;image=data:image/png,iVBORw0KGgoAAAANSUhEUgAAAOEAAADhCAMAAAAJbSJIAAABEVBMVEX////wvxo+vrAjHyAHpd4Bm4/XoikcFxlRTk/vuwBDs+MAlIfv+Pf8+PHUnAAnuqsAAAAAn9wAot0kDwD446vY2tsLAAAEquUkCQARh7T557j889vwvgDtuxzg8vrs9/xex7u1492I08rg8/HL6+f779D66sL44ab//vn33Jbyx0XzzFj00W7Wnx3bpyfntSD9+Ojiu2v0z2dRSEVHl7puweiPzuwdDAMRX38gN0RXWVsWc5moqqskGBQbV3FzdXYzNDYLmc23ubohKjAShLFovLN5z8S/5uLxxDP114Xw3bvqzpvt16vkwHr22ozaqTzmxonepwC23vKTlZeGyuuh1u/O6fee2tOFxb8hqp2PycPD+r+tAAAGA0lEQVR4nO2aa3vaRhBGkSAkcrAVbNKmoLYgAQaMW9zW6f3ecEmbNE3TUuf//5BKwhcuwpZ2591dkTlf7Q+c592d2dVsocAwDMMwDMMwDMMwDMMwTJ7ojRqdbr12HFGrdzuNUU/3T6Ki16j3hwPL2cQbDPv1Rr5FG7XhNFJxrGTCvzjOdFhr6P6hQjSOT6Lfv8VtxTPk5Dhnlt1ZaOelsLsi+vdhV/fPTkt3mC67hCzzINmI0hPQu5L0ZmYv1/og09pMwnMGdd0a2+j1txbNjEl6fRN7yP5MYnVuODqzfd1Ca4R+sstzFc8wxz6x38Kxr1vrmhrR/lvH8Wq61WKelw8+hQhGjlP9vaN3dlAulz9BKVrOTLPg89PTchmq6FlazzlxgAtgipYz1ObXuAxwwYcwRc/StBt/PyivAKs3YYzHOgTP1gSxip8p9xuVT9cFoYqeNVIr2NkIEK1oOR2Vgn8kC4IVFZ5wXm0TBCu+VCX4YrsgWFFRZ9wsoivg+qKqknqWUETVKZ4YIIg8wKlQTCEIPIZb+IV6a5FRpAgtN7e0iRWQBRXaNLY2+g2Q1QbY+rcc1RJBGsIOcKMMgtitaDmYY3gGvzJ4K1oWQjBNn1gGuxUBBXX9Rn8n2JZBv0wbWQWxV37Ah5vMfmXgOkXU0hcZN2EMap0iEszSCZeArFPMFxuRBCMAgs4AMXUTWqOYEDFzDIE6CgrR8zBDjD+FBYmLjTPEzPfT3ygSIOwYzhR04O7JCNKF6Exhj1BeiZYZwhA9Z4CbIu5LRUgRoudYL5HjNeFOQRCiF71uHPSx08PRgSx/JTyeTYU3PZnVOvDXUb19XZj48IthGIZhGIZhGAEekPH5F3tpOX/6+iNVgo8f3afiy6/eL6XiMKRaLZ3/q8Twu/eKZHyd0vBKtFp6qsDwm/t0hkeZBBdp/gM3fEQnWDz6ILNiqVoCb8jHpIbfZluml47YGCm3YfH7H0QMS9VzpOGPhNswc6lRovgTqeGRmCFUkXIbFotPfhYzLFXfoARJC41YMb1URHX/X4gNhYppzCHI8G/KUhoW07TntgRD0FakLaWi7SKmiun8D2gNRdtFHOIexJBYsPiruCEoRNpCEy5TCcNDRMeoUBs+ERcMARgSt0OJlh+BWKZmGSLuisQNX9YQ0BLJDcWPbTH0hqS3Q3nDah4Mf5My/DgPhhINEVFM2ZANEwwlBPOxD6VqKeAWvPv9cPfPNLt/LjXLEHG32P37oVl3fMgw0ajvNPTdsGDWtzbMB9Pd/15q0Ddv0GzGnLkFpJAW3oXZkzHzQ9ws35AZMGxA+i7M8Y14iwFM0IT3NIfV10hBA95E7UEOa0vofddWLYEDLOh+m4h/t6f1fekbNe9Ld/+NMMMwDMMwDMMw6qhoQ5Vh8FCeC1cMuzmeTwK44rN70tjiRJ7jFjbPykNZwQsJw0vNZgup+J+soqzgQtIHLlfZDCkMI8kxzLElF6JLZBg6+qgNeWFChAtH0H4MZEKkizBWbGJilCk2pIKR4wSiaEqEsaKPMGyLhijdC5MUxwjFZ4KKAMFoMyIUzYkwAqEoVk9BghjFuYAiKkLQQhXYijBBULXJfLTBCdo2QrBQySiIW6O2CzqgZuyKQME2RjDjLQMoCLwPv02vCKyjc5xghjM4UBByLr0hbc/ACUL6RHbFHAumU6S/MykUTKMI24RqBO8uNzhBcJG54Y6mAROEtolVbm39MEHoh+912hoEYUe1ZCoXW2JE+dnKxm3XJJdUlKCiIrpK0q0fJah0C94Q3Ft3BPnZ+DHpNtY6I0hQWRdMor0cI8bPVlxDN7iJESOoNcAFwWXfgPg19e3AZVrhUoUMKGxNJTSBtwBBV+Ux9G4qvks8CsWNtEWpzAkdw/xM84uZ2zSOrm3U+lxh0pQO0nWbmDk2FYEvFaRrI18GUdEeCwbpumPd55fUtMMks1mG/+7nRm9B0Bq7KS3D/xu3crA4EwhaftO9zTP6Y9PPqd01wWTuN+3EB7K+igeyyqgE7faktWDSbgdGdnSGYRiGYRiGYRiGYRiGYbbzP8i5YrPZUUWwAAAAAElFTkSuQmCC;" vertex="1" parent="1">
          <mxGeometry x="1370" y="132.5" width="75" height="75" as="geometry" />
        </mxCell>
      </root>
    </mxGraphModel>
  </diagram>
</mxfile>
